<svg xmlns="http://www.w3.org/2000/svg" width="89.053" height="278.071" viewBox="0 0 89.053 278.071">
  <g id="グループ_47745" data-name="グループ 47745" transform="translate(17418.232 8473.136)">
    <path id="パス_94230" data-name="パス 94230" d="M5.664,15.832H8.64c.336,0,.576-.12.624-.384-.7-.744-1.92-1.9-1.92-1.9L6.288,15.136H5.664V9.28c.624-.1.816-.336.864-.672L3.816,8.32v6.816H.96l.192.7H3.816v8.184c-1.32.528-2.424.912-3.1,1.128L1.776,27.52a1.034,1.034,0,0,0,.5-.7c3.072-1.9,5.376-3.552,6.96-4.728l-.12-.264c-1.176.5-2.352,1.008-3.456,1.44ZM22.3,23.344h-.288a20.731,20.731,0,0,1-1.032,3.528.952.952,0,0,1-.72.36,31.979,31.979,0,0,1-3.216.1H13.56c-1.416,0-1.728-.264-1.728-.984v-9.7l2.9-1.08v9.96h.36c.672,0,1.464-.408,1.464-.648V14.9L19.9,13.672c-.1,5.376-.264,7.56-.7,8.04-.144.168-.288.216-.648.216s-1.128-.048-1.632-.1v.36a2.078,2.078,0,0,1,1.176.576,1.867,1.867,0,0,1,.288,1.3A2.96,2.96,0,0,0,20.52,23.3c.864-.864,1.128-3.024,1.2-9.336a1.485,1.485,0,0,0,.936-.384L20.64,11.944,19.656,13l-.192.072-2.9,1.08V8.824c.624-.1.816-.336.864-.672l-2.688-.288v6.96l-2.9,1.08V10.7c.6-.1.816-.36.864-.648L9.984,9.736V16.6l-3.24,1.2.456.576,2.784-1.032v9.432c0,1.9.84,2.328,3.408,2.328h3.552c5.232,0,6.336-.288,6.336-1.272,0-.384-.216-.624-.912-.864ZM13.08,40.312v4.056H10.3V40.312ZM8.472,46c-.984.408-1.968.816-2.9,1.176V39.4H8.28a.692.692,0,0,0,.456-.144v7.7H9c.792,0,1.3-.408,1.3-.552V45.064H13.08v1.224h.24c.528,0,1.32-.336,1.344-.5V40.432a1.421,1.421,0,0,0,.72-.36L13.7,38.8l-.792.792h-2.4l-1.776-.744v.024c-.7-.72-1.752-1.68-1.752-1.68L5.928,38.728h-.36v-5.52c.6-.1.792-.336.864-.672L3.7,32.248v6.48H.888l.192.672H3.7v8.52c-1.32.5-2.424.912-3.048,1.1l1.224,2.3a.857.857,0,0,0,.48-.648C5.16,48.856,7.2,47.344,8.616,46.288Zm7.272.936c-3.864,1.056-7.632,2.04-9.24,2.352l1.08,2.064a.953.953,0,0,0,.528-.6C11.5,49.336,14.04,48.16,15.84,47.3Zm7.536.96-.288-.048a19.209,19.209,0,0,1-.96,2.712c-.192.408-.384.336-.672.072a9.24,9.24,0,0,1-2.28-3.672,24.483,24.483,0,0,0,3.12-6.888c.624.024.84-.1.96-.408l-2.568-.84A27.9,27.9,0,0,1,18.456,44.9a38.69,38.69,0,0,1-.984-7.968H22.68a.545.545,0,0,0,.6-.384c-.744-.72-1.992-1.728-1.992-1.728v.024c.1-.72-.552-1.728-2.784-2.064l-.24.192a4.476,4.476,0,0,1,1.488,2.376,1.01,1.01,0,0,0,1.008.168l-.552.72h-2.76c-.024-1.056-.024-2.112,0-3.144.552-.1.768-.384.816-.672L15.6,32.1c0,1.416.024,2.784.1,4.128H7.848l.192.7h7.68A40.369,40.369,0,0,0,17.28,46.96a18.329,18.329,0,0,1-7.392,6.264l.192.432a18.3,18.3,0,0,0,7.776-5.112,13.245,13.245,0,0,0,2.472,3.936c.936,1.032,2.136,1.752,2.856,1.1.288-.264.144-.984-.336-1.776ZM2.424,60.136a7.813,7.813,0,0,1-1.248,4.44,1.1,1.1,0,0,0-.336,1.44c.408.48,1.272.216,1.7-.408.6-.888,1.008-2.88.312-5.448Zm1.848-4.344V77.944h.36c.7,0,1.464-.408,1.464-.648V56.776c.6-.1.792-.336.864-.672ZM6.36,59.56a8.146,8.146,0,0,1,1.128,3.552c1.32,1.32,3-1.56-.816-3.7Zm5.592,12.528V69.9h7.056v2.184ZM19.008,67.1v2.112H11.952V67.1Zm-.24-.72H12.1l-2.016-.888V77.9h.312c.792,0,1.56-.456,1.56-.648V72.784h7.056v2.4c0,.336-.1.48-.48.48-.432,0-2.328-.144-2.328-.144v.36a2.851,2.851,0,0,1,1.7.672,2.234,2.234,0,0,1,.408,1.344c2.28-.216,2.568-1.056,2.568-2.448V67.432a1.876,1.876,0,0,0,1.032-.48l-2.232-1.68Zm1.3-2.472h-3.84V61.768H21.6c.336,0,.576-.12.648-.384-.792-.744-2.064-1.728-2.064-1.728l-1.1,1.416H16.224V59.08h6.12c.336,0,.528-.12.6-.384-.792-.72-2.136-1.776-2.136-1.776l-1.152,1.464H16.224V56.8c.552-.1.744-.312.792-.624l-2.664-.264v2.472H8.52l.192.7h5.64v1.992H9.576l.192.7h4.584V63.9H7.92l.192.72H22.7c.336,0,.576-.12.648-.384-.816-.768-2.136-1.8-2.136-1.8ZM9.072,91.744h-1.3a29.12,29.12,0,0,0,2.112-2.952c.528.024.816-.192.912-.456L8.208,87.52C7.968,88.792,7.56,90.5,7.2,91.744H.84l.192.72H5.376v3.312H1.2l.168.7H5.376v5.472h.288a1.889,1.889,0,0,0,1.536-.528V96.472h4.224c.336,0,.576-.12.648-.36-.792-.768-2.064-1.872-2.064-1.872L8.856,95.776H7.2V92.464h4.44c.336,0,.576-.12.648-.384-.792-.744-2.088-1.8-2.088-1.8Zm-6.48-3.96A8.738,8.738,0,0,1,3.5,91.336c1.44,1.44,3.36-1.56-.624-3.648Zm6.48-1.008H7.2V83.752h3.888c.336,0,.6-.12.648-.384-.768-.744-2.016-1.776-2.016-1.776l-1.1,1.464H7.2V80.632c.552-.1.744-.312.792-.6l-2.616-.264v3.288H1.44l.192.7H5.376v3.024H.84l.192.672h10.68c.336,0,.576-.12.624-.384-.792-.744-2.088-1.848-2.088-1.848ZM20.16,90.3a25,25,0,0,1-1.584,5.568A15.154,15.154,0,0,1,16.1,90.3Zm.936-1.776-1.08,1.08H14.424V82.12h5.544v3.5c0,.336-.12.48-.528.48-.6,0-3.048-.192-3.048-.192V86.3a4.632,4.632,0,0,1,2.088.624,1.887,1.887,0,0,1,.528,1.272c2.472-.216,2.784-1.056,2.784-2.352V82.456a1.8,1.8,0,0,0,1.008-.432l-2.184-1.632-.888,1.056H14.544L12.6,80.536V101.92h.336c.84,0,1.488-.48,1.488-.72V90.3h1.2a21.36,21.36,0,0,0,2.184,7.1,14.087,14.087,0,0,1-3.336,4.176l.24.336a14.414,14.414,0,0,0,3.816-3.336A12.611,12.611,0,0,0,21.7,101.8a2.221,2.221,0,0,1,1.776-1.512l.048-.24a13.171,13.171,0,0,1-3.96-2.928A20.446,20.446,0,0,0,22.1,90.544c.5-.048.72-.144.888-.36ZM1.1,116.368a21.642,21.642,0,0,0,3.24-3.36V125.92H4.7a2.554,2.554,0,0,0,1.536-.5V111.208c.432-.072.672-.216.768-.408l-.864-.336a35.243,35.243,0,0,0,2.64-5.208c.552.048.864-.168.96-.456l-2.976-1.008A37.994,37.994,0,0,1,.792,116.1Zm21.024,2.256h-.312a24.808,24.808,0,0,1-1.032,4.248.705.705,0,0,1-.6.432c-.456.048-1.368.072-2.616.072H14.784c-1.224,0-1.488-.264-1.488-.936v-7.584a35.417,35.417,0,0,0,8.064-5.04c.528.144.768.048.936-.168l-2.472-1.728a33.482,33.482,0,0,1-6.528,6.264v-8.976c.6-.1.84-.336.888-.672l-2.808-.312v18.72c0,1.824.792,2.3,3.12,2.3h2.976c4.536,0,5.592-.312,5.592-1.3,0-.384-.192-.624-.864-.888Zm-10.68,15.792a11.285,11.285,0,0,1-.912,3.888c-.936,2.088-3.12,5.736-4.632,5.736-.984,0-1.968-1.752-1.968-3.936a7.673,7.673,0,0,1,2.376-5.424,9.017,9.017,0,0,1,4.44-2.424A3.921,3.921,0,0,1,11.448,134.416Zm-.36,13.776c7.9-.456,10.608-4.488,10.608-8.616,0-4.992-3.84-8.4-8.952-8.4a10.461,10.461,0,0,0-7.08,2.568,9.324,9.324,0,0,0-3.312,6.84c0,3.024,1.7,5.688,3.408,5.688,2.592,0,5.352-4.584,6.36-7.512a12.133,12.133,0,0,0,.768-3.984,4.513,4.513,0,0,0-1.2-2.688c.312-.024.6-.048.888-.048a6.76,6.76,0,0,1,7.032,7.056c0,4.32-2.688,7.416-8.616,8.568Z" transform="translate(-17389.129 -8481)"/>
    <path id="パス_94231" data-name="パス 94231" d="M6.252,8.156V9.848H3.588V8.156ZM3.588,11.984V10.208H6.252v1.776ZM10.356,5.3l-.564.624H3.8c.24-.42.456-.852.66-1.308.264.012.42-.084.468-.228l-1.476-.54A15.075,15.075,0,0,1,.48,9.392l.156.12a10.127,10.127,0,0,0,2.028-1.92V13.4h.144c.4,0,.78-.216.78-.312V12.32H6.252v.756h.156a1.253,1.253,0,0,0,.78-.312V8.324a.938.938,0,0,0,.516-.24l-1.08-.816L6.132,7.8H3.648L2.8,7.436c.276-.372.552-.756.8-1.176H9.924c-.084,3.72-.276,6.876-.768,7.332a.632.632,0,0,1-.516.18c-.312,0-1.44-.108-2.16-.168l-.012.192a5.011,5.011,0,0,1,1.548.456.862.862,0,0,1,.276.72,2.07,2.07,0,0,0,1.656-.624c.624-.744.84-3.852.936-7.932a.8.8,0,0,0,.516-.2ZM5.724,20.208a5.643,5.643,0,0,1-.456,1.944C4.8,23.2,3.708,25.02,2.952,25.02c-.492,0-.984-.876-.984-1.968A3.837,3.837,0,0,1,3.156,20.34a4.508,4.508,0,0,1,2.22-1.212A1.961,1.961,0,0,1,5.724,20.208ZM5.544,27.1c3.948-.228,5.3-2.244,5.3-4.308a4.187,4.187,0,0,0-4.476-4.2,5.23,5.23,0,0,0-3.54,1.284,4.662,4.662,0,0,0-1.656,3.42c0,1.512.852,2.844,1.7,2.844,1.3,0,2.676-2.292,3.18-3.756a6.067,6.067,0,0,0,.384-1.992,2.257,2.257,0,0,0-.6-1.344c.156-.012.3-.024.444-.024A3.38,3.38,0,0,1,9.8,22.548c0,2.16-1.344,3.708-4.308,4.284ZM1.212,32.068a3.906,3.906,0,0,1-.624,2.22.552.552,0,0,0-.168.72c.2.24.636.108.852-.2a3.54,3.54,0,0,0,.156-2.724ZM2.136,29.9V40.972h.18c.348,0,.732-.2.732-.324V30.388c.3-.048.4-.168.432-.336ZM3.18,31.78a4.073,4.073,0,0,1,.564,1.776c.66.66,1.5-.78-.408-1.848Zm2.8,6.264V36.952H9.5v1.092Zm3.528-2.5V36.6H5.976V35.548Zm-.12-.36H6.048L5.04,34.744v6.2H5.2c.4,0,.78-.228.78-.324V38.392H9.5v1.2c0,.168-.048.24-.24.24-.216,0-1.164-.072-1.164-.072v.18a1.426,1.426,0,0,1,.852.336,1.117,1.117,0,0,1,.2.672c1.14-.108,1.284-.528,1.284-1.224V35.716a.938.938,0,0,0,.516-.24l-1.116-.84Zm.648-1.236H8.112V32.884H10.8c.168,0,.288-.06.324-.192-.4-.372-1.032-.864-1.032-.864l-.552.708H8.112v-1h3.06c.168,0,.264-.06.3-.192-.4-.36-1.068-.888-1.068-.888l-.576.732H8.112V30.4c.276-.048.372-.156.4-.312l-1.332-.132v1.236H4.26l.1.348h2.82v1H4.788l.1.348H7.176v1.068H3.96l.1.36h7.3c.168,0,.288-.06.324-.192-.408-.384-1.068-.9-1.068-.9Zm-5.5,14.92H3.888A14.56,14.56,0,0,0,4.944,47.4c.264.012.408-.1.456-.228L4.1,46.76c-.12.636-.324,1.488-.5,2.112H.42l.1.36H2.688v1.656H.6l.084.348h2v2.736h.144a.944.944,0,0,0,.768-.264V51.236H5.712c.168,0,.288-.06.324-.18C5.64,50.672,5,50.12,5,50.12l-.576.768H3.6V49.232H5.82c.168,0,.288-.06.324-.192-.4-.372-1.044-.9-1.044-.9ZM1.3,46.892a4.369,4.369,0,0,1,.456,1.776c.72.72,1.68-.78-.312-1.824Zm3.24-.5H3.6V44.876H5.544c.168,0,.3-.06.324-.192C5.484,44.312,4.86,43.8,4.86,43.8l-.552.732H3.6V43.316c.276-.048.372-.156.4-.3l-1.308-.132v1.644H.72l.1.348H2.688v1.512H.42l.1.336h5.34c.168,0,.288-.06.312-.192-.4-.372-1.044-.924-1.044-.924Zm5.544,1.764a12.5,12.5,0,0,1-.792,2.784,7.577,7.577,0,0,1-1.236-2.784Zm.468-.888-.54.54h-2.8V44.06H9.984v1.752c0,.168-.06.24-.264.24-.3,0-1.524-.1-1.524-.1v.192a2.316,2.316,0,0,1,1.044.312A.943.943,0,0,1,9.5,47.1c1.236-.108,1.392-.528,1.392-1.176V44.228a.9.9,0,0,0,.5-.216L10.308,43.2l-.444.528H7.272L6.3,43.268V53.96h.168c.42,0,.744-.24.744-.36V48.152h.6A10.68,10.68,0,0,0,8.9,51.7a7.044,7.044,0,0,1-1.668,2.088l.12.168a7.207,7.207,0,0,0,1.908-1.668A6.305,6.305,0,0,0,10.848,53.9a1.11,1.11,0,0,1,.888-.756l.024-.12A6.586,6.586,0,0,1,9.78,51.56a10.223,10.223,0,0,0,1.272-3.288c.252-.024.36-.072.444-.18ZM6.372,57.156c.528.072.828.144.864.42a19.241,19.241,0,0,1,.048,2.232l-2.448.24c0-.468.012-.924.036-1.14.024-.4.192-.408.192-.66,0-.372-.792-.744-1.2-.744a1.9,1.9,0,0,0-.744.192v.216c.516.1.792.18.852.444a11.6,11.6,0,0,1,.084,1.776c-.708.072-1.836.2-2.28.2-.312,0-.528-.324-.768-.672l-.2.06a1.918,1.918,0,0,0,.084.72c.12.252.6.852.948.852a4.048,4.048,0,0,0,.84-.252c.336-.084.8-.18,1.38-.264a17.9,17.9,0,0,1-.2,1.956c0,.384.228.948.576.948.288,0,.42-.192.42-.672,0-.408-.012-1.356-.012-2.328.72-.072,1.608-.156,2.448-.216a7.385,7.385,0,0,1-.72,3.672,6.394,6.394,0,0,1-2.652,2.2l.144.252A6.438,6.438,0,0,0,7.308,64.44a7.262,7.262,0,0,0,.852-4.02c.276-.012.528-.024.756-.024,1,0,1.5.132,1.824.132.252,0,.372-.072.372-.336,0-.42-.708-.684-1.26-.684-.252,0-.372.1-1.68.216.012-.468.024-1.02.036-1.452.036-.54.264-.492.264-.756,0-.3-.72-.8-1.308-.8a2.4,2.4,0,0,0-.8.2Z" transform="translate(-17340.939 -8475.4)"/>
    <path id="パス_94232" data-name="パス 94232" d="M7.524,6.9a1.655,1.655,0,0,1,.264.432c.084.216.036.312-.156.48a15.8,15.8,0,0,1-3.864,1.98c.048-1.128.108-2.34.18-2.856.048-.372.276-.444.276-.7,0-.312-.744-.84-1.3-.864a3.3,3.3,0,0,0-.936.216L2,5.78c.6.108.888.2.936.516.084.5-.06,4.368-.048,5.628.024,1.728.336,2.124,2.616,2.124a14.529,14.529,0,0,0,3.576-.312c.264-.084.444-.216.444-.516,0-.324-.4-.48-1.044-.48a15.622,15.622,0,0,1-3.12.4c-1.4,0-1.644-.1-1.644-1.224,0-.312.012-.924.036-1.62a29.548,29.548,0,0,0,4.56-1.728c.456-.228.78-.3.78-.552a1.648,1.648,0,0,0-.72-1,1.564,1.564,0,0,0-.7-.264Zm.78-1.26A5.26,5.26,0,0,1,9.372,6.764c.216.3.348.54.528.564a.356.356,0,0,0,.372-.36.982.982,0,0,0-.4-.708A4.076,4.076,0,0,0,8.46,5.444ZM9.36,4.748A5.388,5.388,0,0,1,10.416,5.78c.252.3.384.552.588.564a.3.3,0,0,0,.312-.336.9.9,0,0,0-.408-.756,4.343,4.343,0,0,0-1.4-.7ZM2.58,18.984a2.442,2.442,0,0,0,.144.78c.144.336.648.912,1.044.912.312,0,.384-.24.768-.348.636-.18,2.268-.588,3.012-.7.132-.024.2.012.144.18a16.349,16.349,0,0,1-6.768,6.78l.168.276A14.091,14.091,0,0,0,6.42,23.28a9.491,9.491,0,0,1,2.5,2.328c.564.7.78,1.068,1.152,1.068a.494.494,0,0,0,.492-.528c0-1.1-1.9-2.376-3.852-3.168a20.177,20.177,0,0,0,1.944-2.664c.156-.228.576-.348.576-.612,0-.312-.876-1.02-1.272-1.02-.2,0-.36.264-.624.336A27.35,27.35,0,0,1,3.7,19.6c-.408,0-.66-.408-.876-.708ZM8.856,33.532a1.722,1.722,0,0,1,.588.42c.168.18.144.3-.06.42-.672.36-1.824.84-2.76,1.344-.132-.852-.6-1.356-1.344-1.356a2.822,2.822,0,0,0-1.32.432c-.084.048-.12-.012-.072-.084a12.924,12.924,0,0,0,1.08-1.62,13.087,13.087,0,0,0,2.868-.864c.252-.132.36-.252.36-.42,0-.288-.288-.384-.6-.384-.18,0-.264.12-.744.324a11.916,11.916,0,0,1-1.416.48c.144-.276.288-.564.384-.756.12-.252.216-.348.216-.516,0-.324-.84-.516-1.248-.516a2.171,2.171,0,0,0-.732.156l-.012.2a2.822,2.822,0,0,1,.7.216c.228.108.252.216.192.42a5.141,5.141,0,0,1-.36,1,6.2,6.2,0,0,1-1.1.12,1.822,1.822,0,0,1-1.6-.72l-.228.132c.432.948.648,1.308,1.62,1.308a7.526,7.526,0,0,0,.888-.06,10.856,10.856,0,0,1-1.644,2.184c-.528.54-.96.816-.948,1.176s.168.588.456.576c.336-.012.684-.636,1.1-1.1.48-.54,1.272-1.26,1.92-1.26.612,0,.8.372.84,1.368-1.344.852-2.5,1.836-2.5,2.82s.744,1.7,3,1.7a11.871,11.871,0,0,0,2.688-.324c.408-.12.492-.276.492-.5,0-.312-.3-.456-.78-.456a17.893,17.893,0,0,1-3.012.384c-1.152,0-1.836-.312-1.836-.924,0-.684.84-1.416,1.944-2.064-.012.612-.06,1.2-.06,1.5a.466.466,0,0,0,.492.516c.288,0,.444-.216.444-.54,0-.408-.012-1.212-.06-1.9a23.374,23.374,0,0,1,3.312-1.272c.5-.144.684-.168.684-.432a1.539,1.539,0,0,0-.72-1.032,2.165,2.165,0,0,0-.984-.3ZM9.8,46.34v1.368H7.872V46.34ZM7.872,49.508v-1.44H9.8v1.44Zm-2.736,0v-1.44H6.984v1.44ZM6.984,46.34v1.368H5.136V46.34ZM9.1,43.892A11.248,11.248,0,0,1,7.776,44.9a7.657,7.657,0,0,0-2.316-.516l-.06.18a5.414,5.414,0,0,1,2.268,1.368l.06.048H5.208l-.984-.432V52.28h.132c.4,0,.78-.228.78-.336V49.856H6.984v2.328h.144c.468,0,.744-.192.744-.252V49.856H9.8v1.188c0,.144-.036.2-.228.2s-.972-.06-.972-.06v.18a1.272,1.272,0,0,1,.732.3,1.072,1.072,0,0,1,.18.624c1.08-.108,1.212-.492,1.212-1.164V46.5a.828.828,0,0,0,.516-.228l-1.1-.84-.456.552H8.436c.216-.192.228-.564-.36-.924a12.17,12.17,0,0,0,2.3-1.008.846.846,0,0,0,.5-.108L9.9,42.98l-.588.564H4.092l.108.348ZM.948,43.364a4.694,4.694,0,0,1,1.38,2.208c1.008.744,1.824-1.428-1.26-2.3ZM2.94,48.548a.966.966,0,0,0,.588-.24l-1.14-.948-.528.7H.468l.072.36H2.028V52c-.588.336-1.188.648-1.6.828l.624,1.116A.244.244,0,0,0,1.2,53.66a20.739,20.739,0,0,0,1.6-1.728c.828,1.452,1.8,1.752,4.02,1.752h4.1a.814.814,0,0,1,.684-.792v-.168c-1.476.048-3.384.048-4.8.048-2.112,0-3.012-.132-3.864-1.068ZM8.052,60.624A.322.322,0,0,0,8.4,60.3a1.049,1.049,0,0,0-.468-.8,4.539,4.539,0,0,0-1.536-.84l-.144.192a5.62,5.62,0,0,1,1.2,1.224C7.7,60.4,7.848,60.624,8.052,60.624Zm1.2-1.056a.306.306,0,0,0,.324-.336,1.148,1.148,0,0,0-.528-.852,4.151,4.151,0,0,0-1.536-.732l-.144.192A5.157,5.157,0,0,1,8.64,59.016C8.916,59.352,9.048,59.568,9.252,59.568ZM3.1,57.576c.2.132.276.288.276.768,0,.756-.276,3.456-.276,5.28,0,2.112.876,2.916,2.52,2.916a5.4,5.4,0,0,0,4.872-3.312l-.252-.18a5.775,5.775,0,0,1-4.56,2.52c-1.356,0-1.788-.564-1.788-2.04a27.145,27.145,0,0,1,.444-4.548c.108-.576.36-.684.36-.96,0-.384-.912-1.08-1.548-1.1a3.132,3.132,0,0,0-.828.12v.24A2.16,2.16,0,0,1,3.1,57.576ZM.9,71.476a2.5,2.5,0,0,0,0,.6,1.567,1.567,0,0,0,1.224,1.068,1.906,1.906,0,0,0,.768-.336,22.078,22.078,0,0,1,3.768-1.26c.132-.024.144.048.06.108a5.016,5.016,0,0,0-1.9,4.092,2.927,2.927,0,0,0,1.2,2.7,4.661,4.661,0,0,0,2.664.648c.552,0,.948-.12.948-.48,0-.336-.432-.6-.756-.6a4.418,4.418,0,0,1-2.232-.372,2.169,2.169,0,0,1-1.02-2.124,4.182,4.182,0,0,1,1.644-3.684,3.813,3.813,0,0,1,1.992-.468c.42,0,.78.036,1.044.036.3,0,.468-.168.468-.372s-.144-.372-.42-.492a2.239,2.239,0,0,0-.9-.156,17.559,17.559,0,0,0-2.772.528C4.668,71.38,2.52,72,1.86,72a1.088,1.088,0,0,1-.768-.6Z" transform="translate(-17340.939 -8399.799)"/>
    <path id="パス_94224" data-name="パス 94224" d="M1.152,10.331a1.377,1.377,0,0,1,.1-.619,1.834,1.834,0,0,1,1.164-.919c.384,0,.528.17,1.272.24.9.09,4.08.24,4.872.24.768,0,1.188-.02,1.62-.02s.612.12.612.32c0,.32-.564.53-1.1.53-.3,0-.7-.06-1.5-.11-.6-.04-4.644-.26-5.772-.26-.54,0-.744.3-1.02.659Z" transform="translate(-17325.887 -8408.116) rotate(87)"/>
    <path id="パス_94223" data-name="パス 94223" d="M2.3,21.076A3.508,3.508,0,0,1,2.5,19.67c.36-.862,1.584-2.086,2.328-2.086.768,0,1.056.385,2.544.544,1.8.2,8.16.544,9.744.544,1.536,0,2.376-.045,3.24-.045s1.224.272,1.224.726c0,.726-1.128,1.2-2.208,1.2-.6,0-1.392-.136-3-.249-1.2-.091-9.288-.59-11.544-.59-1.08,0-1.488.68-2.04,1.5Z" transform="matrix(0.052, 0.999, -0.999, 0.052, -17387.887, -8449.221)"/>
    <path id="パス_94225" data-name="パス 94225" d="M2.3,21.076A3.508,3.508,0,0,1,2.5,19.67c.36-.862,1.584-2.086,2.328-2.086.768,0,1.056.385,2.544.544,1.8.2,8.16.544,9.744.544,1.536,0,2.376-.045,3.24-.045s1.224.272,1.224.726c0,.726-1.128,1.2-2.208,1.2-.6,0-1.392-.136-3-.249-1.2-.091-9.288-.59-11.544-.59-1.08,0-1.488.68-2.04,1.5Z" transform="matrix(0.052, 0.999, -0.999, 0.052, -17387.887, -8236.221)"/>
    <path id="パス_94233" data-name="パス 94233" d="M17.256,18.424c.072-1.464.192-4.08.24-5.5.048-.768.48-.912.48-1.464,0-.576-1.728-1.584-2.688-1.584a4.492,4.492,0,0,0-1.8.624l.024.456a5.089,5.089,0,0,1,1.44.384c.432.24.48.552.5,1.008a51.1,51.1,0,0,1-.048,6.024c-.312,4.872-2.616,8.064-7.248,10.56l.288.48C14.016,27.472,16.968,24.04,17.256,18.424ZM6.936,12.208c.384.192.432.384.48.936.12.912.144,3.312.144,4.44-.024,1.872-.264,2.76-.264,3.384,0,1.032.5,1.92,1.128,1.92.528,0,.912-.36.912-1.368,0-1.176-.048-6.144.024-7.2.072-.912.432-1.176.432-1.68,0-.672-1.68-1.632-2.616-1.632a4.673,4.673,0,0,0-1.536.336V11.8A6.9,6.9,0,0,1,6.936,12.208Z" transform="translate(-17419 -8481)"/>
    <path id="パス_94234" data-name="パス 94234" d="M6.216,11.1c.816,1.368,1.512,2.136,2.808,2.136a46.565,46.565,0,0,0,7.488-.984c.768-.144,1.032-.384,1.032-.768,0-.7-.888-1.1-2.064-1.1-.456,0-.768.384-2.136.7a20.878,20.878,0,0,1-4.392.6,3.993,3.993,0,0,1-2.424-.864ZM2.592,16.072a3.4,3.4,0,0,0,.168,1.3c.24.72,1.368,1.728,1.992,1.7a10.677,10.677,0,0,0,2.064-.552c.744-.192,2.808-.576,4.7-.84a1.5,1.5,0,0,1,.336.936c0,1.464-1.488,6.888-7.1,10.608l.456.48A16.113,16.113,0,0,0,13.584,20.3c.336-.84.912-.984.912-1.488,0-.432-.576-.888-1.272-1.3,2.04-.192,3.936-.264,4.992-.264,1.224,0,2.232.192,2.664.192.576,0,.768-.216.768-.72,0-.768-1.44-1.368-2.568-1.368a23.845,23.845,0,0,1-2.424.432c-4.056.384-10.44,1.344-12.072,1.344-.648,0-1.1-.576-1.608-1.2ZM18.12,10.864a10.644,10.644,0,0,1,2.088,2.184c.456.6.672,1.056,1.056,1.056a.617.617,0,0,0,.648-.648,1.814,1.814,0,0,0-.744-1.416A8.146,8.146,0,0,0,18.456,10.5Zm1.848-1.92a9.721,9.721,0,0,1,2.064,2.016c.48.6.7,1.056,1.128,1.08.408.024.624-.288.624-.672A1.868,1.868,0,0,0,22.9,9.88a9.9,9.9,0,0,0-2.64-1.32ZM13.2,38.632c.5.24,1.056.624,1.056,1.008,0,1.1-4.608,6.192-9.5,8.976l.24.384a24.808,24.808,0,0,0,7.1-4.2,2.127,2.127,0,0,1,.168.744,42.252,42.252,0,0,1-.216,4.824c-.048.6-.192.984-.192,1.32,0,.792.384,1.7,1.2,1.7.552,0,.84-.384.84-1.128,0-.984-.144-3.648-.048-6.216.024-.48.192-.768.192-1.056,0-.312-.432-.648-.984-1.032,1.128-1.056,2.016-2.016,2.664-2.736.5-.5.888-.5.888-.984,0-.576-1.008-1.488-1.872-1.776a4.187,4.187,0,0,0-1.416-.144ZM4.536,59.944a15.9,15.9,0,0,1,4.152,3.792c.6.768.984,1.08,1.488,1.08a1.029,1.029,0,0,0,1.032-1.1c0-2.04-3.48-3.6-6.384-4.248Zm2.448,13.2c-.792,0-1.584-.816-2.256-1.56l-.36.24a5.163,5.163,0,0,0,.48,1.752A4.812,4.812,0,0,0,7.92,75.568c.576,0,.864-.648,1.416-.984C14.664,71.2,19.1,67.24,21.96,62.08l-.528-.336C18,66.736,9.048,73.144,6.984,73.144ZM8.736,82.12c.816.36,1.44.792,1.44,1.248,0,1.416-3.432,6.288-7.2,9.1l.336.48a21.7,21.7,0,0,0,7.344-6.24,2.208,2.208,0,0,0,1.056.576,5.593,5.593,0,0,0,1.344-.312,31.123,31.123,0,0,1,3.576-.576c.24,0,.336.1.24.408-1.92,4.824-7.536,10.992-13.7,14.208l.36.5A29.792,29.792,0,0,0,18.84,87.784c.384-.624,1.2-.816,1.2-1.344,0-.744-1.776-1.8-2.4-1.8-.432,0-.672.456-1.32.6a33.518,33.518,0,0,1-4.608.528,1.941,1.941,0,0,1-.36-.024,15.575,15.575,0,0,0,.864-1.32c.384-.6.7-.792.7-1.248,0-.48-1.416-1.272-2.544-1.44a5.385,5.385,0,0,0-1.512-.024Zm9.024.12a10.518,10.518,0,0,1,2.208,2.208c.456.6.744,1.056,1.1,1.056a.63.63,0,0,0,.672-.672,1.964,1.964,0,0,0-.816-1.44,7.823,7.823,0,0,0-2.88-1.536Zm2.088-1.512a11.23,11.23,0,0,1,2.208,2.016c.528.6.768,1.1,1.176,1.1s.624-.264.624-.7a1.87,1.87,0,0,0-.888-1.488,9.493,9.493,0,0,0-2.832-1.32Zm-6.48,30.312c.24-.936.408-1.9.528-2.448.192-.936.768-.936.768-1.536,0-.648-1.752-1.632-2.784-1.656a7.132,7.132,0,0,0-1.824.408v.456a8.353,8.353,0,0,1,1.512.432c.36.168.432.36.432.816a28.494,28.494,0,0,1-.6,3.744c-2.592.312-5.136.6-5.856.6s-1.1-.744-1.488-1.416l-.432.1a3.016,3.016,0,0,0,.12,1.608c.216.648,1.248,1.872,1.9,1.872.5,0,.744-.36,1.488-.552.7-.168,2.52-.528,3.888-.768a21.308,21.308,0,0,1-8.568,11.976l.36.456a19.149,19.149,0,0,0,10.224-12.744,39.08,39.08,0,0,1,4.536-.48.255.255,0,0,1,.288.288c0,1.536-.936,7.128-2.424,9-.336.408-.576.456-1.2.288a27.461,27.461,0,0,1-2.832-1.1l-.264.456c1.392,1.1,2.112,1.536,2.352,2.4.144.6.36.84.864.84a3.54,3.54,0,0,0,2.808-2.064,28.2,28.2,0,0,0,2.5-8.952c.12-.744.792-.7.792-1.248,0-.576-1.584-1.872-2.16-1.872-.456,0-.672.576-1.32.648Zm-8.832,20.9a15.9,15.9,0,0,1,4.152,3.792c.6.768.984,1.08,1.488,1.08a1.029,1.029,0,0,0,1.032-1.1c0-2.04-3.48-3.6-6.384-4.248Zm2.448,13.2c-.792,0-1.584-.816-2.256-1.56l-.36.24a5.163,5.163,0,0,0,.48,1.752,4.812,4.812,0,0,0,3.072,1.992c.576,0,.864-.648,1.416-.984,5.328-3.384,9.768-7.344,12.624-12.5l-.528-.336C18,138.736,9.048,145.144,6.984,145.144Zm12.5,14.64a2.664,2.664,0,1,0-2.664-2.664A2.658,2.658,0,0,0,19.488,159.784Zm0-4.488a1.824,1.824,0,1,1-1.824,1.824A1.823,1.823,0,0,1,19.488,155.3ZM8.424,160.96c0,1.68-4.368,6.432-7.656,8.688l.336.48a27.378,27.378,0,0,0,8.9-7.128c.48-.576,1.056-.84,1.056-1.344a3.755,3.755,0,0,0-2.568-2.64,5.642,5.642,0,0,0-1.536-.048l-.144.432C7.512,159.76,8.424,160.384,8.424,160.96Zm13.44,6.408c-.288-3.072-4.392-6.768-7.992-8.568l-.336.456a18.5,18.5,0,0,1,5.952,8.16c.36,1.032.576,1.608,1.3,1.584C21.456,169,21.96,168.328,21.864,167.368Zm-3.48,15.12c0-.7-1.512-1.176-2.52-1.176-.48,0-.744.408-2.232.72a37.844,37.844,0,0,1-5.256.624A3.555,3.555,0,0,1,6,181.384l-.384.216a5.339,5.339,0,0,0,.624,1.488,2.818,2.818,0,0,0,1.872,1.272c.96,0,5.688-.6,9.384-1.008A.849.849,0,0,0,18.384,182.488ZM2.352,191.656c.288.576,1.488,1.848,2.256,1.848a11.915,11.915,0,0,0,2.112-.6,44.1,44.1,0,0,1,9.144-1.008,33.888,33.888,0,0,1,5.64.7.757.757,0,0,0,.84-.792c0-.864-2.04-1.944-3.1-1.944a13.664,13.664,0,0,1-1.776.312c-4.368.216-11.784,1.1-12.984,1.1a2.651,2.651,0,0,1-1.992-1.2l-.456.168A3.346,3.346,0,0,0,2.352,191.656Z" transform="translate(-17419 -8432)"/>
    <path id="パス_94235" data-name="パス 94235" d="M1.56,20.368a3.467,3.467,0,0,0,2.3,1.344c.72,0,1.08-.552,1.656-1.368.864-1.176,2.568-3.528,3.408-4.536.384-.432.672-.648.96-.648a1.719,1.719,0,0,1,1.176.624c1.728,1.824,3.6,4.44,5.64,6.5,2.04,2.088,4.08,3.648,5.112,3.648a.865.865,0,0,0,.936-.96,1.948,1.948,0,0,0-1.1-1.728c-4.656-2.544-6.96-5.952-9.6-8.544A3.008,3.008,0,0,0,9.84,13.648a2.266,2.266,0,0,0-1.68.888c-.864.96-2.928,3.24-4.056,4.272a1.922,1.922,0,0,1-1.2.672,2.937,2.937,0,0,1-1.512-.84l-.36.288A3.219,3.219,0,0,0,1.56,20.368Z" transform="translate(-17419 -8221)"/>
  </g>
</svg>
