<svg xmlns="http://www.w3.org/2000/svg" width="89.209" height="257.925" viewBox="0 0 89.209 257.925">
  <g id="グループ_47744" data-name="グループ 47744" transform="translate(17350.352 9289.112)">
    <path id="パス_94226" data-name="パス 94226" d="M11.184,8.032a7.244,7.244,0,0,1,1.56,3.432c1.656,1.368,3.384-2.016-1.32-3.576ZM6.24,14.224H9.288a.574.574,0,0,0,.624-.384c-.744-.744-1.992-1.8-1.992-1.8l-1.1,1.488H6.24V8.8c.624-.1.792-.336.864-.7L4.392,7.816v5.712H.936l.192.7H4.152A26.786,26.786,0,0,1,.7,24.088l.336.312a18.882,18.882,0,0,0,3.36-4.968V29.9h.384c.7,0,1.464-.408,1.464-.624V17.464a10.949,10.949,0,0,1,1.416,3.408c1.512,1.344,3.168-1.752-1.416-3.96Zm14.184,5.232a25.937,25.937,0,0,1-2.52,3.5,10.68,10.68,0,0,1-1.44-3.336v-.792h6.1a.574.574,0,0,0,.624-.384c-.792-.768-2.16-1.824-2.16-1.824l-1.152,1.488H16.464V15.544h5.112c.336,0,.552-.12.624-.384-.816-.744-2.112-1.752-2.112-1.752l-1.152,1.416H16.464V12.5H22.2c.312,0,.528-.1.6-.36-.792-.744-2.112-1.752-2.112-1.752l-1.176,1.44h-2.28c.912-.912,1.92-2.016,2.592-2.808.5.024.792-.168.888-.456l-2.664-.792c-.336,1.2-.936,2.856-1.416,4.056H9.264l.192.672H14.64v2.328H9.984l.192.72H14.64v2.568H8.928l.192.72h5.52v4.752l-.024-.048c-2.736,1.32-5.5,2.616-6.648,3.072l1.488,1.9a.808.808,0,0,0,.384-.672c2.112-1.608,3.672-2.976,4.8-3.888v3.432c0,.312-.12.456-.5.456-.432,0-2.4-.144-2.4-.144v.336a2.988,2.988,0,0,1,1.752.648,1.981,1.981,0,0,1,.432,1.248c2.256-.216,2.544-1.152,2.544-2.472v-6.48c.984,4.248,2.832,6.312,5.568,7.9a2.21,2.21,0,0,1,1.44-1.776l.024-.264a10.453,10.453,0,0,1-5.28-3.432,27.3,27.3,0,0,0,3.528-2.3c.552.168.744.072.912-.168Zm-10.488.408a6.146,6.146,0,0,1,1.7,3.288c1.608,1.3,3.288-2.04-1.44-3.456ZM11.016,40.6c.648-.864,1.2-1.7,1.608-2.328.432-.7.984-.768.984-1.32,0-.5-.936-1.32-1.632-1.68a5.5,5.5,0,0,0-2.52-.528l-.192.48a4.992,4.992,0,0,1,1.416.816.671.671,0,0,1,.216.888,28.214,28.214,0,0,1-3.12,5.4,50.456,50.456,0,0,1-4.92,5.808l.456.456a31.813,31.813,0,0,0,5.712-5.448c.432-.5.888-1.056,1.32-1.632a1.666,1.666,0,0,0,.816.528,7.263,7.263,0,0,0,1.032-.216c.888-.12,3.264-.384,4.1-.408.312,0,.408.1.264.408A32.062,32.062,0,0,1,12.84,47.3a19.674,19.674,0,0,0-4.032-2.04l-.336.456a20.462,20.462,0,0,1,5.856,5.808c.456.768.672,1.2,1.344,1.2s.96-.528.96-1.176A3.725,3.725,0,0,0,15.5,49.5,16.5,16.5,0,0,0,13.7,47.9c1.824-1.776,3.336-3.552,4.464-4.8.432-.456,1.344-.624,1.344-1.176,0-.7-1.7-2.256-2.4-2.256-.408,0-.624.5-1.32.6-.768.12-3.552.336-4.368.336ZM6.744,57.664a4.817,4.817,0,0,1,1.1.408.84.84,0,0,1,.528.936,14.357,14.357,0,0,1-.384,2.448,12.1,12.1,0,0,1-2.112.24,4.312,4.312,0,0,1-3.24-1.368l-.408.288c.744,1.968,1.584,2.616,3.456,2.616a16.22,16.22,0,0,0,1.824-.12,26.812,26.812,0,0,1-4.488,8.136,1.933,1.933,0,0,0-.456,1.272c0,.552.288,1.128.864,1.128.5,0,.84-.456,1.272-1.08A45.388,45.388,0,0,0,9.1,62.848a15.219,15.219,0,0,0,3.816-1.272c.312-.192.792-.5.792-.96a.9.9,0,0,0-.984-.84c-.408,0-.912.528-3.072,1.224.84-2.784.984-3.312.552-3.6a3.661,3.661,0,0,0-1.872-.456,4.647,4.647,0,0,0-1.584.336Zm7.8,15.408c0,1.416-.648,2.448-2.808,2.448-1.728,0-2.472-.624-2.472-1.464,0-.816,1.056-1.728,3.192-1.728a11.438,11.438,0,0,1,2.088.192Zm.864-11.112a4.614,4.614,0,0,1,2.664.768c.36.264.456.552.072.792a8.115,8.115,0,0,0-2.736,1.656,4.106,4.106,0,0,0-1.1,3.12c0,.864.1,1.848.144,2.832-.312-.024-.648-.048-.984-.048-3.264,0-5.184,1.464-5.184,3.312,0,1.512,1.392,2.76,3.936,2.76S16.272,76,16.272,73.984c0-.288-.024-.6-.048-.936a9.642,9.642,0,0,1,3.048,2.016c.624.552.96,1.056,1.464,1.056.432,0,.768-.336.768-.936,0-.744-.672-1.512-1.92-2.28a10.9,10.9,0,0,0-3.552-1.512c-.168-1.416-.432-2.832-.48-3.528a2.94,2.94,0,0,1,.48-2.208,3.484,3.484,0,0,1,2.112-.912c1.1-.048,1.584.456,2.256.456.552,0,.792-.408.792-1.008,0-1.08-.84-2.064-2.328-2.592a6.587,6.587,0,0,0-3.456-.168ZM6.216,83.1c.816,1.368,1.512,2.136,2.808,2.136a46.565,46.565,0,0,0,7.488-.984c.768-.144,1.032-.384,1.032-.768,0-.7-.888-1.1-2.064-1.1-.456,0-.768.384-2.136.7a20.878,20.878,0,0,1-4.392.6,3.993,3.993,0,0,1-2.424-.864ZM2.592,88.072a3.4,3.4,0,0,0,.168,1.3c.24.72,1.368,1.728,1.992,1.7a10.677,10.677,0,0,0,2.064-.552c.744-.192,2.808-.576,4.7-.84a1.5,1.5,0,0,1,.336.936c0,1.464-1.488,6.888-7.1,10.608l.456.48A16.113,16.113,0,0,0,13.584,92.3c.336-.84.912-.984.912-1.488,0-.432-.576-.888-1.272-1.3,2.04-.192,3.936-.264,4.992-.264,1.224,0,2.232.192,2.664.192.576,0,.768-.216.768-.72,0-.768-1.44-1.368-2.568-1.368a23.845,23.845,0,0,1-2.424.432c-4.056.384-10.44,1.344-12.072,1.344-.648,0-1.1-.576-1.608-1.2ZM18.12,82.864a10.644,10.644,0,0,1,2.088,2.184c.456.6.672,1.056,1.056,1.056a.617.617,0,0,0,.648-.648,1.814,1.814,0,0,0-.744-1.416A8.146,8.146,0,0,0,18.456,82.5Zm1.848-1.92a9.722,9.722,0,0,1,2.064,2.016c.48.6.7,1.056,1.128,1.08.408.024.624-.288.624-.672A1.868,1.868,0,0,0,22.9,81.88a9.9,9.9,0,0,0-2.64-1.32Z" transform="translate(-17321.129 -9296.88)"/>
    <path id="パス_94227" data-name="パス 94227" d="M17.424,14.008a21.247,21.247,0,0,1-3.168,5.448,32.442,32.442,0,0,0-5.472-2.472,30.488,30.488,0,0,0,2.448-2.88,1.744,1.744,0,0,0,.888.432,5.593,5.593,0,0,0,1.344-.312,28.879,28.879,0,0,1,3.7-.6C17.424,13.6,17.544,13.7,17.424,14.008ZM12,13.048c.24-.36.456-.7.672-1.056.36-.6.7-.792.7-1.248,0-.48-1.368-1.272-2.52-1.44A5.214,5.214,0,0,0,9.36,9.28l-.12.408c.816.384,1.44.792,1.44,1.224,0,1.44-3.984,6.936-7.68,9.744l.36.48A21.444,21.444,0,0,0,8.3,17.44a20.326,20.326,0,0,1,4.968,3.216,32.843,32.843,0,0,1-10.1,8.04l.312.5A28.619,28.619,0,0,0,14.5,21.88c1.68,1.872,2.064,2.856,2.856,2.832a.936.936,0,0,0,.96-1.056c-.048-1.008-1.176-2.16-2.568-3.192a37.566,37.566,0,0,0,3.6-5.448c.312-.576,1.176-.792,1.176-1.3,0-.72-1.7-1.872-2.3-1.872-.456,0-.672.48-1.32.624a36.077,36.077,0,0,1-4.8.576Zm5.712,26.016a3.443,3.443,0,0,1,1.176.84c.336.36.288.6-.12.84-1.344.72-3.648,1.68-5.52,2.688-.264-1.7-1.2-2.712-2.688-2.712a5.644,5.644,0,0,0-2.64.864c-.168.1-.24-.024-.144-.168a25.849,25.849,0,0,0,2.16-3.24,26.173,26.173,0,0,0,5.736-1.728c.5-.264.72-.5.72-.84,0-.576-.576-.768-1.2-.768-.36,0-.528.24-1.488.648a23.832,23.832,0,0,1-2.832.96c.288-.552.576-1.128.768-1.512.24-.5.432-.7.432-1.032,0-.648-1.68-1.032-2.5-1.032a4.342,4.342,0,0,0-1.464.312l-.024.408a5.645,5.645,0,0,1,1.392.432c.456.216.5.432.384.84a10.281,10.281,0,0,1-.72,1.992,12.391,12.391,0,0,1-2.208.24,3.644,3.644,0,0,1-3.192-1.44l-.456.264c.864,1.9,1.3,2.616,3.24,2.616a15.053,15.053,0,0,0,1.776-.12,21.713,21.713,0,0,1-3.288,4.368c-1.056,1.08-1.92,1.632-1.9,2.352,0,.7.336,1.176.912,1.152C4.7,46.264,5.4,45.016,6.24,44.08c.96-1.08,2.544-2.52,3.84-2.52,1.224,0,1.608.744,1.68,2.736-2.688,1.7-4.992,3.672-4.992,5.64,0,1.944,1.488,3.408,6,3.408a23.741,23.741,0,0,0,5.376-.648c.816-.24.984-.552.984-1.008,0-.624-.6-.912-1.56-.912-1.08,0-2.472.768-6.024.768-2.3,0-3.672-.624-3.672-1.848,0-1.368,1.68-2.832,3.888-4.128-.024,1.224-.12,2.4-.12,3a.931.931,0,0,0,.984,1.032c.576,0,.888-.432.888-1.08,0-.816-.024-2.424-.12-3.792a46.748,46.748,0,0,1,6.624-2.544c1.008-.288,1.368-.336,1.368-.864a3.078,3.078,0,0,0-1.44-2.064,4.329,4.329,0,0,0-1.968-.6Zm-15.72,31.2a6.855,6.855,0,0,1-1.056,4.1c-1.32,2.016,3.1,2.76,1.416-4.1Zm1.44-.168a12.244,12.244,0,0,1,.216,4.32c1.032,1.272,2.568-1.344.12-4.416Zm1.44-.36A8.558,8.558,0,0,1,6,73.336c1.1,1.08,2.424-1.392-.792-3.72Zm1.512-.456A4.945,4.945,0,0,1,7.92,71.8c1.2.864,2.256-1.656-1.272-2.712Zm-.408-8.712H3.84V57.952H5.976Zm0,3.384H3.84V61.288H5.976Zm0,3.456H3.84V64.672H5.976Zm5.52-9.456c.336,0,.552-.12.624-.384-.792-.72-2.04-1.68-2.04-1.68l-1.1,1.368H4.128l-1.92-.888v13.1h.264c.84,0,1.368-.432,1.368-.576V68.08H9.576c-.264,4.584-.816,7.056-1.464,7.632a1.109,1.109,0,0,1-.816.24c-.456,0-1.56-.1-2.256-.144v.408a3.383,3.383,0,0,1,1.488.552A1.517,1.517,0,0,1,6.864,77.9a3.329,3.329,0,0,0,2.28-.768C10.2,76.216,10.872,73.6,11.16,68.3a1.507,1.507,0,0,0,.96-.36L10.3,66.424l-.912.984h-1.8V64.672h3.384c.336,0,.576-.12.624-.384-.7-.7-1.776-1.56-1.776-1.56l-.984,1.224H7.584V61.288H11.04c.336,0,.576-.12.624-.384-.672-.672-1.776-1.56-1.776-1.56L8.9,60.568H7.584V57.952Zm2.712,3.576a51.858,51.858,0,0,1,3.408,4.944,24.417,24.417,0,0,1-3.408,7.32Zm5.784,13.848H14.208V73.984l.216.168a19.563,19.563,0,0,0,4.056-6.144,17.229,17.229,0,0,1,1.7,4.44c1.728,1.464,2.76-1.752-.888-6.48a40.172,40.172,0,0,0,1.488-5.4c.672.024.888-.12.984-.432l-2.712-.72a41.426,41.426,0,0,1-.936,5.16,30.84,30.84,0,0,0-3.576-3.264l-.336.168V58.288h8.16c.336,0,.528-.12.6-.36-.816-.744-2.16-1.8-2.16-1.8l-1.176,1.488H14.5l-2.04-.984V77.848h.288c.888,0,1.464-.432,1.464-.6V76.072h8.544c.336,0,.576-.12.648-.384-.816-.768-2.208-1.848-2.208-1.848ZM5.544,86.272a38.063,38.063,0,0,0,2.328-5.088c.528.024.816-.192.912-.5l-2.856-.888A39.794,39.794,0,0,1,.72,91.936l.336.216a20.9,20.9,0,0,0,2.88-3.336v13.1h.336a2.272,2.272,0,0,0,1.56-.6V87.064c.408-.048.624-.216.7-.408Zm4.7,5.376V87.256h3.816v4.392Zm9.48-4.392v4.392H15.936A5.848,5.848,0,0,0,15.96,91V87.256Zm0,5.112v1.248h.312a2.6,2.6,0,0,0,1.584-.6V87.592a1.788,1.788,0,0,0,1.008-.48l-2.16-1.632-.984,1.08H15.96V83.968h6.552a.574.574,0,0,0,.624-.384c-.888-.816-2.352-1.944-2.352-1.944l-1.272,1.632H15.96V80.8c.6-.1.792-.336.84-.672l-2.736-.288v3.432H7.632l.192.7h6.24V86.56h-3.7L8.4,85.72v8.04h.24c.792,0,1.608-.432,1.608-.6v-.792h3.768a9.876,9.876,0,0,1-1.224,4.32,9.3,9.3,0,0,1-2.664-2.9l-.336.168a12.155,12.155,0,0,0,2.352,3.72A12.693,12.693,0,0,1,6.12,101.56l.192.36a15.313,15.313,0,0,0,6.816-3.312c2.112,1.752,4.968,2.784,8.64,3.288a2.294,2.294,0,0,1,1.608-1.872V99.76a21.448,21.448,0,0,1-9.288-2.232,9.733,9.733,0,0,0,1.8-5.16ZM6.528,107.08c.408.264.552.576.552,1.536,0,1.512-.552,6.912-.552,10.56,0,4.224,1.752,5.832,5.04,5.832a10.8,10.8,0,0,0,9.744-6.624l-.5-.36a11.551,11.551,0,0,1-9.12,5.04c-2.712,0-3.576-1.128-3.576-4.08a54.29,54.29,0,0,1,.888-9.1c.216-1.152.72-1.368.72-1.92,0-.768-1.824-2.16-3.1-2.208a6.264,6.264,0,0,0-1.656.24v.48A4.32,4.32,0,0,1,6.528,107.08ZM1.8,132.952a5.008,5.008,0,0,0,0,1.2,3.134,3.134,0,0,0,2.448,2.136,3.813,3.813,0,0,0,1.536-.672,44.156,44.156,0,0,1,7.536-2.52c.264-.048.288.1.12.216A10.032,10.032,0,0,0,9.648,141.5c0,2.808.864,4.32,2.4,5.4a9.323,9.323,0,0,0,5.328,1.3c1.1,0,1.9-.24,1.9-.96,0-.672-.864-1.2-1.512-1.2a8.837,8.837,0,0,1-4.464-.744c-.936-.552-2.04-1.584-2.04-4.248,0-4.584,2.28-6.744,3.288-7.368a7.626,7.626,0,0,1,3.984-.936c.84,0,1.56.072,2.088.072.6,0,.936-.336.936-.744,0-.432-.288-.744-.84-.984a4.479,4.479,0,0,0-1.8-.312,35.118,35.118,0,0,0-5.544,1.056c-4.032.936-8.328,2.184-9.648,2.184a2.176,2.176,0,0,1-1.536-1.2Z" transform="translate(-17321.129 -9179.38)"/>
    <path id="パス_94223" data-name="パス 94223" d="M2.3,21.076A3.508,3.508,0,0,1,2.5,19.67c.36-.862,1.584-2.086,2.328-2.086.768,0,1.056.385,2.544.544,1.8.2,8.16.544,9.744.544,1.536,0,2.376-.045,3.24-.045s1.224.272,1.224.726c0,.726-1.128,1.2-2.208,1.2-.6,0-1.392-.136-3-.249-1.2-.091-9.288-.59-11.544-.59-1.08,0-1.488.68-2.04,1.5Z" transform="matrix(0.052, 0.999, -0.999, 0.052, -17289.631, -9197.221)"/>
    <path id="パス_94228" data-name="パス 94228" d="M4.224,5.084c.168,0,.288-.048.324-.18-.372-.36-1.008-.852-1.008-.852l-.528.7H.936l.1.336ZM3.5,6.248H.408L.5,6.6H4.74c.156,0,.276-.06.3-.192-.372-.348-1-.84-1-.84ZM.948,7.784l.1.36H4.3c.168,0,.276-.06.3-.192-.348-.348-.912-.8-.912-.8l-.516.636ZM4.3,9.68c.168,0,.276-.06.3-.192-.348-.336-.912-.8-.912-.8l-.516.648H.948l.1.348ZM1.848,13.508V11.24H3.432v2.268ZM4.308,11.4a.94.94,0,0,0,.492-.24l-1.02-.768-.468.516H1.9L.96,10.5V14.96h.132c.372,0,.756-.2.756-.288v-.816H3.432v.54h.132a1.22,1.22,0,0,0,.744-.276ZM6.144,8.564V6.944H7.572v1.62Zm1.428-3.54V6.608H6.144V5.024Zm2.424,0V6.608H8.5V5.024ZM8.5,8.564V6.944H10v1.62Zm2.82,2.016c.156,0,.276-.06.3-.192-.384-.384-1.044-.9-1.044-.9l-.564.744H8.5V8.9H10v.408h.144a1.218,1.218,0,0,0,.768-.3V5.192a.98.98,0,0,0,.5-.24l-1.056-.816-.48.54H6.216l-.948-.42V9.584h.144c.36,0,.732-.216.732-.3V8.9H7.572v1.332H4.728l.1.348h2.22a8.573,8.573,0,0,1-2.76,3.744l.132.18A8.687,8.687,0,0,0,7.572,11.78v3.18h.156a.924.924,0,0,0,.768-.288V10.58H8.52a7.461,7.461,0,0,0,2.424,3.7,1.069,1.069,0,0,1,.8-.876l.024-.12a6.781,6.781,0,0,1-2.988-2.7ZM9.744,19.464v1.224H7.3V19.464ZM7.3,23.868V22.62H9.744v1.248Zm2.448-1.6H7.3V21.048H9.744ZM8.028,18.036a10.377,10.377,0,0,1-.168,1.092h-.5L6.4,18.7v6.048H6.54c.372,0,.756-.216.756-.324V24.2H9.744v.384h.144a1.224,1.224,0,0,0,.768-.288V19.56a.651.651,0,0,0,.408-.192l-.96-.732-.456.492H8.412A11.687,11.687,0,0,0,9,18.036h2.28a.273.273,0,0,0,.3-.192c-.384-.372-1.032-.876-1.032-.876L10,17.676H5.784l.1.36Zm.732,6.732A3.434,3.434,0,0,1,10.44,26.3c.684.768,1.992-1.044-1.6-1.728ZM5.412,26.5A6.664,6.664,0,0,0,8,25.164c.312.036.492,0,.552-.132L7.332,24.48a6.248,6.248,0,0,1-2.016,1.872Zm-1.02-8.532V19.2H2.136V17.964Zm-2.256,2.82V19.548H4.392v1.236Zm0,.36H4.392v.444h.144a1.285,1.285,0,0,0,.78-.264V18.132a.894.894,0,0,0,.5-.24l-1.056-.816-.492.54H2.2l-.948-.42v4.512H1.38c.372,0,.756-.2.756-.288ZM3.8,24.54H5.688A.287.287,0,0,0,6,24.348c-.348-.36-.912-.84-.912-.84l-.5.684H3.8V22.608H5.916c.168,0,.288-.06.324-.192-.384-.36-1.008-.84-1.008-.84l-.552.684H.456l.1.348H2.9v3.336a3.72,3.72,0,0,1-.96-1.056c.072-.348.12-.684.156-1.008.276-.024.408-.144.432-.324l-1.26-.132A9.735,9.735,0,0,1,.36,27.84l.12.144A5.566,5.566,0,0,0,1.86,25.26c1.08,2,2.688,2.424,5.628,2.424h3.5a.745.745,0,0,1,.588-.732V26.8c-.984.024-3.132.024-4.044.024A11.156,11.156,0,0,1,3.8,26.4Zm5.052,8.992a1.722,1.722,0,0,1,.588.42c.168.18.144.3-.06.42-.672.36-1.824.84-2.76,1.344-.132-.852-.6-1.356-1.344-1.356a2.822,2.822,0,0,0-1.32.432c-.084.048-.12-.012-.072-.084a12.924,12.924,0,0,0,1.08-1.62,13.087,13.087,0,0,0,2.868-.864c.252-.132.36-.252.36-.42,0-.288-.288-.384-.6-.384-.18,0-.264.12-.744.324a11.916,11.916,0,0,1-1.416.48c.144-.276.288-.564.384-.756.12-.252.216-.348.216-.516,0-.324-.84-.516-1.248-.516a2.171,2.171,0,0,0-.732.156l-.012.2a2.822,2.822,0,0,1,.7.216c.228.108.252.216.192.42a5.141,5.141,0,0,1-.36,1,6.2,6.2,0,0,1-1.1.12,1.822,1.822,0,0,1-1.6-.72l-.228.132c.432.948.648,1.308,1.62,1.308a7.526,7.526,0,0,0,.888-.06,10.856,10.856,0,0,1-1.644,2.184c-.528.54-.96.816-.948,1.176s.168.588.456.576c.336-.012.684-.636,1.1-1.1.48-.54,1.272-1.26,1.92-1.26.612,0,.8.372.84,1.368-1.344.852-2.5,1.836-2.5,2.82s.744,1.7,3,1.7a11.871,11.871,0,0,0,2.688-.324c.408-.12.492-.276.492-.5,0-.312-.3-.456-.78-.456a17.893,17.893,0,0,1-3.012.384c-1.152,0-1.836-.312-1.836-.924,0-.684.84-1.416,1.944-2.064-.012.612-.06,1.2-.06,1.5a.466.466,0,0,0,.492.516c.288,0,.444-.216.444-.54,0-.408-.012-1.212-.06-1.9a23.374,23.374,0,0,1,3.312-1.272c.5-.144.684-.168.684-.432a1.539,1.539,0,0,0-.72-1.032,2.165,2.165,0,0,0-.984-.3ZM7.536,44.168A4.213,4.213,0,0,1,5.6,47.4l.084.168a4.419,4.419,0,0,0,2.892-3.4h1.6a4.342,4.342,0,0,1-.312,2.064.473.473,0,0,1-.336.084c-.192,0-.768-.048-1.1-.072v.18a1.657,1.657,0,0,1,.78.288.8.8,0,0,1,.18.612,1.8,1.8,0,0,0,1.056-.3c.408-.324.564-1.1.636-2.748a.606.606,0,0,0,.432-.18l-.948-.768-.48.5H5.712l.108.336ZM3.768,50.084V48.368h.9v1.716ZM2.16,48.368h.864v1.716H2.1c.048-.576.06-1.14.06-1.632ZM3.792,44.5a11.86,11.86,0,0,1-.648,1.56H2.316l-.528-.228a9.69,9.69,0,0,0,.84-1.332ZM2.16,46.412h.864V48.02H2.16Zm2.508,0V48.02h-.9V46.412Zm.312-.888-.432.54H3.468A13.484,13.484,0,0,0,4.728,44.6c.228-.012.372-.024.468-.12l-.936-.84-.492.516h-.96c.1-.2.192-.42.276-.636a.421.421,0,0,0,.456-.24l-1.272-.408A11.629,11.629,0,0,1,.456,46.9l.168.12a6,6,0,0,0,.708-.66v2.088A11.737,11.737,0,0,1,.468,53.8l.168.132a6.054,6.054,0,0,0,1.428-3.5h2.6v2.256c0,.18-.06.252-.264.252-.24,0-1.356-.084-1.356-.084v.192a1.958,1.958,0,0,1,.96.312.822.822,0,0,1,.228.576c1.14-.108,1.272-.492,1.272-1.14V46.568a1.031,1.031,0,0,0,.528-.24Zm5.256,5.58H9.108V49.4H11.16a.259.259,0,0,0,.288-.192c-.348-.348-.948-.816-.948-.816l-.516.66H9.108V47.816c.276-.048.372-.156.4-.3L8.2,47.384v1.668H6.948a8.919,8.919,0,0,0,.444-.972c.252.012.4-.1.432-.228L6.636,47.48A8.5,8.5,0,0,1,5.6,50.444l.168.12A5.217,5.217,0,0,0,6.744,49.4H8.2v1.7H5.676l.1.348H8.2V53.96h.18c.348,0,.732-.2.732-.312v-2.2h2.376c.168,0,.276-.06.312-.192-.384-.36-1.008-.876-1.008-.876Zm-9,5.068A3.963,3.963,0,0,1,2.568,57.8c1,.54,1.584-1.428-1.224-1.728ZM.372,58.9a3.416,3.416,0,0,1,1.236,1.512c.96.564,1.584-1.332-1.128-1.62ZM3.888,57.66c-2.232,5.2-2.232,5.2-2.472,5.628-.12.252-.156.264-.312.264H.564V63.8a1.144,1.144,0,0,1,.6.18c.276.18.348,1.164.156,2.376.048.4.228.6.468.6.456,0,.732-.348.756-.864a11.381,11.381,0,0,0-.36-2.064,4.11,4.11,0,0,1,.192-1.116c.18-.624,1.188-3.6,1.74-5.208Zm3.528.912H9.168V61.5H7.356c.036-.4.06-.792.06-1.2Zm3.96,3.264c.168,0,.288-.048.312-.18-.348-.4-.972-.948-.972-.948l-.54.792h-.06V58.728a.94.94,0,0,0,.492-.24l-1.044-.8-.516.54H7.416v-1.74c.312-.048.4-.168.42-.336L6.492,56v2.22H4.164l.1.348H6.492V60.3c0,.408-.012.816-.048,1.2h-3l.1.336H6.408A5.894,5.894,0,0,1,2.64,66.792l.1.18c3.144-1.044,4.26-2.9,4.572-5.136h.024c.48,2.616,1.452,4.26,3.564,5.124a1.19,1.19,0,0,1,.768-.924l.012-.12a5.561,5.561,0,0,1-4.116-4.08ZM5.916,76.348a1,1,0,0,1-.96-1.1,1.032,1.032,0,0,1,.972-1.128c.516,0,.852.42.852,1.152C6.78,76.048,6.5,76.348,5.916,76.348Zm-.636-6.24a3.578,3.578,0,0,1,.8.12c.192.06.252.132.276.36.024.288.06.684.084,1.116-1.4.168-3.816.5-4.284.492-.408,0-.624-.336-.936-.756l-.216.084a2.262,2.262,0,0,0,.108.756,1.626,1.626,0,0,0,1.152.936c.348,0,.576-.2,1.128-.348a22.59,22.59,0,0,1,3.072-.576c.036.516.048,1.008.06,1.356a2.045,2.045,0,0,0-.492-.06,1.649,1.649,0,0,0-1.62,1.74c0,1.212.948,2.172,2.136,1.68a4.993,4.993,0,0,1-3.12,2.532l.144.276c2.4-.516,4.164-1.848,4.164-4.128a2.354,2.354,0,0,0-.5-1.632c-.012-.6-.012-1.26,0-1.836a14.864,14.864,0,0,1,3.648.1c.264,0,.408-.084.408-.348,0-.444-.672-.7-1.152-.7-.24,0-.84.12-2.892.336,0-.264.012-.48.024-.624.012-.312.2-.5.2-.8,0-.324-.78-.6-1.32-.6a1.955,1.955,0,0,0-.9.3Zm.648,21.508c-1.092,0-1.62-.348-1.62-.78,0-.384.312-.624.756-.624a1.455,1.455,0,0,1,1.38,1.38C6.276,91.6,6.108,91.616,5.928,91.616ZM3.3,83.108a1.781,1.781,0,0,0-.024.708,1.3,1.3,0,0,0,1.068.972c.216,0,.4-.18.624-.288a11.443,11.443,0,0,1,1.848-.684c.156-.036.24.036.108.228-.54.816-2.808,2.976-4.488,4.7-.312.312-.444.5-.456.756-.024.336.18.564.372.564s.312-.072.528-.336c1.008-1.308,2.2-2.412,3.9-2.412a1.993,1.993,0,0,1,2.2,2.028,2.2,2.2,0,0,1-1.7,2.088,2,2,0,0,0-1.992-1.7A1.29,1.29,0,0,0,3.852,90.92c0,.912.96,1.476,2.316,1.476,2.328,0,3.7-1.26,3.72-2.784a2.681,2.681,0,0,0-2.88-2.724,5.945,5.945,0,0,0-2.052.408c-.108.048-.168-.048-.072-.144A37.326,37.326,0,0,1,7.632,84.62c.408-.348.732-.384.732-.636,0-.384-.744-.96-1.164-.96-.192,0-.216.144-.54.24a13.97,13.97,0,0,1-2.472.54c-.312,0-.516-.36-.684-.72Zm1.764,18.676H4.908a12.285,12.285,0,0,1-.408,1.6.267.267,0,0,1-.252.156c-.144.012-.5.024-.96.024H2.232c-.384,0-.444-.06-.444-.252V99.6h2.16v.576H4.1a1.261,1.261,0,0,0,.792-.312v-3.2a.937.937,0,0,0,.48-.228l-1.056-.8-.492.528H.66l.108.348h3.18v2.748H1.932L.84,98.808v4.752c0,.732.2.924,1.2.924H3.228c1.8,0,2.22-.2,2.22-.636,0-.18-.048-.3-.348-.408Zm4.248-3.816a10.412,10.412,0,0,1-1.284,4.152A10.349,10.349,0,0,1,6.66,98.64c.12-.216.24-.444.348-.672Zm2,0a.287.287,0,0,0,.312-.192c-.42-.4-1.128-.936-1.128-.936l-.612.78H7.176a14.61,14.61,0,0,0,.744-2.04c.276-.012.42-.12.468-.276L6.9,94.944A15.473,15.473,0,0,1,4.692,100.8l.168.108a8.442,8.442,0,0,0,1.608-1.956,13.045,13.045,0,0,0,1.164,3.78A9.645,9.645,0,0,1,3.588,105.8l.1.156a10.021,10.021,0,0,0,4.356-2.508,7.052,7.052,0,0,0,2.82,2.52,1.064,1.064,0,0,1,.876-.8l.036-.12a7.581,7.581,0,0,1-3.216-2.208A10.115,10.115,0,0,0,10.4,97.968Zm-7.98,19.948v-1.848H8.688v1.848Zm5.244-2.2H3.408l-.972-.42v3.648h.132a1.087,1.087,0,0,0,.768-.276v-.408H8.688v.612h.156a1.456,1.456,0,0,0,.792-.264v-2.4A.943.943,0,0,0,10.1,116L9.048,115.2Zm-3.072-2.868v1.536H3.96c.48-.2.588-1.116-.864-1.536Zm2.64,0c-.156.468-.384,1.08-.588,1.536H6.468v-1.536Zm1.68,1.536H7.92a8.247,8.247,0,0,0,1.092-1c.264.012.408-.084.456-.228l-1.128-.312h2.568c.168,0,.288-.06.324-.192-.42-.372-1.08-.9-1.08-.9l-.6.744H6.468v-1.152H9.9a.273.273,0,0,0,.3-.192c-.4-.372-1.044-.864-1.044-.864L8.592,111H6.468v-1.14h3.948c.168,0,.288-.06.324-.192-.42-.372-1.068-.852-1.068-.852l-.588.7H7.308a7.811,7.811,0,0,0,1.236-1.032c.264.012.408-.072.456-.228l-1.368-.36a12.664,12.664,0,0,1-.7,1.62H4.548c.444-.288.42-1.3-1.3-1.6L3.144,108a2.736,2.736,0,0,1,.744,1.44l.108.072H1.368l.108.348H5.508V111H1.992l.1.348h3.42V112.5H.9l.108.348H2.772l-.024.012a2.415,2.415,0,0,1,.576,1.392.7.7,0,0,0,.216.132H.492l.108.348H11.2a.287.287,0,0,0,.312-.192c-.408-.384-1.092-.9-1.092-.9Zm0,8.98-.576.612H6.012c.048-.828.06-1.692.072-2.568.3-.036.4-.156.432-.336l-1.5-.156c0,1.056.012,2.088-.048,3.06H1.1l.108.36H4.956c-.2,2.916-1.008,5.436-4.416,7.428l.132.2c4.164-1.9,5.076-4.56,5.316-7.632H9.372c-.108,3.252-.336,5.76-.792,6.168a.611.611,0,0,1-.492.156c-.312,0-1.38-.084-2.052-.156l-.012.2a4.42,4.42,0,0,1,1.464.444.822.822,0,0,1,.264.72,2.03,2.03,0,0,0,1.6-.564c.624-.66.9-3.216,1.008-6.828a.911.911,0,0,0,.528-.2Z" transform="translate(-17272.939 -9291.28)"/>
    <path id="パス_94229" data-name="パス 94229" d="M7.512,10.048V13.6H3.936V10.048Zm-3.576,7.92V14.3H7.512v3.672Zm0,4.44V18.664H7.512v3.744Zm0,.7H7.512v1.272H7.8a2.037,2.037,0,0,0,1.536-.528V10.192a1.509,1.509,0,0,0,.984-.408L8.376,8.2l-.96,1.152H4.224l-2.04-.864V24.736h.288a2.511,2.511,0,0,0,1.2-.288A15.014,15.014,0,0,1,.936,29.632l.24.312A13.87,13.87,0,0,0,5.328,25.6c.576.072.744-.072.888-.312l-2.3-1.056c.024-.024.024-.024.024-.048Zm2.232,1.272A7.993,7.993,0,0,1,7.68,27.832c1.656,1.368,3.432-1.968-1.224-3.576Zm13.584-8.52a23.2,23.2,0,0,1-2.424,7.272,17.926,17.926,0,0,1-2.76-7.272Zm.96-1.8-1.1,1.1H13.224V10.408H22.44a.586.586,0,0,0,.624-.36c-.816-.768-2.136-1.8-2.136-1.8L19.776,9.736H13.56l-2.112-.864v7.752c0,4.656-.36,9.36-3.144,13.08l.312.24c4.272-3.576,4.608-8.976,4.608-13.32v-.768h.84a24.292,24.292,0,0,0,2.448,8.616,16.273,16.273,0,0,1-5.424,4.992l.24.336a17.06,17.06,0,0,0,5.928-4.08,13.716,13.716,0,0,0,4.32,4.056,2.232,2.232,0,0,1,1.848-1.416l.048-.24a14.412,14.412,0,0,1-5.16-3.7,21.338,21.338,0,0,0,3.432-8.256c.528-.072.768-.12.96-.36ZM5.472,38.248A34.968,34.968,0,0,0,7.8,33.184c.552.024.816-.192.912-.456L5.88,31.816A39.178,39.178,0,0,1,.648,43.864l.336.24a22.34,22.34,0,0,0,2.9-3.36V53.92h.336a2.434,2.434,0,0,0,1.608-.6V39.064c.408-.072.624-.24.7-.432Zm5.808-4.2h7.8v5.544h-7.8ZM16.2,45.64h5.928c.336,0,.576-.12.6-.384-.816-.792-2.232-1.872-2.232-1.872l-1.2,1.56H16.2V40.288h2.88V41.2h.336A2.154,2.154,0,0,0,21,40.72V34.144a1.329,1.329,0,0,0,.888-.384l-1.944-1.536-.96,1.1h-7.44l-2.112-.864v9.1H9.72c.984,0,1.56-.36,1.56-.5v-.768h3V50.56a6.227,6.227,0,0,1-3.6-3.36,24.009,24.009,0,0,0,.576-3.36c.552-.048.816-.264.888-.6l-2.856-.408c0,3.648-.672,8.04-2.952,10.8l.24.264a11.055,11.055,0,0,0,3.888-5.952c1.56,4.152,4.2,5.208,8.76,5.208h3.144c.024-.816.336-1.536.96-1.656v-.312c-1.056.024-3.024.024-3.96.024a21.184,21.184,0,0,1-3.168-.192ZM1.128,60.472h12c.312,0,.552-.1.624-.36-.816-.792-2.208-1.9-2.208-1.9l-1.2,1.584H8.088V56.728c.576-.072.816-.312.864-.648l-2.784-.264V59.8H.936ZM8.28,61.6a8.78,8.78,0,0,1,2.64,4.056c1.944,1.32,3.384-2.736-2.424-4.248ZM1.512,67.264A17.175,17.175,0,0,0,6.1,62.584c.552.072.768-.048.912-.288l-2.5-1.224a19.027,19.027,0,0,1-3.264,5.9Zm6.744-1.92A25.888,25.888,0,0,1,7.176,68.8a22.888,22.888,0,0,0-3.84-1.9l-.264.24a32.677,32.677,0,0,1,3.48,3.1,19.816,19.816,0,0,1-5.76,7.368l.24.288a18.393,18.393,0,0,0,6.7-6.36A12.513,12.513,0,0,1,9.672,74.56c1.752,1.032,2.64-1.7-.984-4.68A21.915,21.915,0,0,0,10.1,66.664c.624.024.816-.12.936-.408Zm12.792-4.536L19.992,61.96H17.136c.048-1.584.048-3.24.072-4.968.576-.072.768-.336.84-.672l-2.784-.288c0,2.088.024,4.056,0,5.928h-3l.216.72h2.76c-.168,6.12-1.032,11.088-5.4,14.856l.336.384c5.688-3.648,6.72-8.856,6.936-15.24h3.144c-.144,7.7-.408,11.88-1.176,12.648a1,1,0,0,1-.84.288c-.48,0-1.848-.1-2.688-.192v.408a4.707,4.707,0,0,1,1.944.72A1.709,1.709,0,0,1,17.88,77.9,3.385,3.385,0,0,0,20.5,76.84c1.08-1.248,1.44-5.232,1.584-13.92a1.579,1.579,0,0,0,.984-.384ZM6.072,89.128V85.84h4.872v3.288Zm4.872-7.176V85.12H6.072V81.952Zm6.984,0V85.12h-5.04V81.952Zm-5.04,7.176V85.84h5.04v3.288Zm9.5,4.272a.574.574,0,0,0,.624-.384c-.912-.84-2.448-1.968-2.448-1.968l-1.32,1.632h-6.36V89.8h5.04v1.056h.288a2.609,2.609,0,0,0,1.632-.648V82.216a1.8,1.8,0,0,0,.888-.432L18.648,80.2l-.936,1.056H6.192l-2.016-.912V91.12h.288c.792,0,1.608-.432,1.608-.624v-.7h4.872v2.88H1.08l.216.72H9.312a23.859,23.859,0,0,1-8.568,7.488l.24.336a23.4,23.4,0,0,0,9.96-6.672v7.392h.336c.984,0,1.608-.456,1.608-.624V93.4H13.1a17.454,17.454,0,0,0,8.448,7.728A2.134,2.134,0,0,1,23.184,99.5l.048-.264a19.427,19.427,0,0,1-9.5-5.832Zm-4.68,17.664a3.443,3.443,0,0,1,1.176.84c.336.36.288.6-.12.84-1.344.72-3.648,1.68-5.52,2.688-.264-1.7-1.2-2.712-2.688-2.712a5.644,5.644,0,0,0-2.64.864c-.168.1-.24-.024-.144-.168a25.848,25.848,0,0,0,2.16-3.24,26.173,26.173,0,0,0,5.736-1.728c.5-.264.72-.5.72-.84,0-.576-.576-.768-1.2-.768-.36,0-.528.24-1.488.648a23.832,23.832,0,0,1-2.832.96c.288-.552.576-1.128.768-1.512.24-.5.432-.7.432-1.032,0-.648-1.68-1.032-2.5-1.032a4.342,4.342,0,0,0-1.464.312l-.024.408a5.645,5.645,0,0,1,1.392.432c.456.216.5.432.384.84a10.281,10.281,0,0,1-.72,1.992,12.391,12.391,0,0,1-2.208.24,3.644,3.644,0,0,1-3.192-1.44l-.456.264c.864,1.9,1.3,2.616,3.24,2.616a15.053,15.053,0,0,0,1.776-.12,21.713,21.713,0,0,1-3.288,4.368c-1.056,1.08-1.92,1.632-1.9,2.352,0,.7.336,1.176.912,1.152.672-.024,1.368-1.272,2.208-2.208.96-1.08,2.544-2.52,3.84-2.52,1.224,0,1.608.744,1.68,2.736-2.688,1.7-4.992,3.672-4.992,5.64,0,1.944,1.488,3.408,6,3.408a23.741,23.741,0,0,0,5.376-.648c.816-.24.984-.552.984-1.008,0-.624-.6-.912-1.56-.912-1.08,0-2.472.768-6.024.768-2.3,0-3.672-.624-3.672-1.848,0-1.368,1.68-2.832,3.888-4.128-.024,1.224-.12,2.4-.12,3a.931.931,0,0,0,.984,1.032c.576,0,.888-.432.888-1.08,0-.816-.024-2.424-.12-3.792a46.749,46.749,0,0,1,6.624-2.544c1.008-.288,1.368-.336,1.368-.864a3.078,3.078,0,0,0-1.44-2.064,4.329,4.329,0,0,0-1.968-.6Zm-.36,18.84v1.92H6.768V129.9ZM6.768,134.56v-2.04H17.352v2.04Zm0,.672H17.352v.96h.312a2.749,2.749,0,0,0,1.608-.528V130.24a1.788,1.788,0,0,0,1.008-.48L18.1,128.1l-.984,1.1H6.912l-2.04-.864v8.184H5.16c.792,0,1.608-.432,1.608-.624Zm2.9,4.7H5.9v-2.112H9.672ZM5.9,143.512H9.672v1.968c-1.32.192-2.592.384-3.768.576Zm0-2.88H9.672v2.184H5.9Zm16.584-2.808a.574.574,0,0,0,.624-.384c-.84-.792-2.3-1.944-2.3-1.944l-1.248,1.656H.96l.216.672H4.032v8.5c-1.3.168-2.376.312-3.072.384l1.08,2.232a.872.872,0,0,0,.576-.552c3.024-.96,5.328-1.752,7.056-2.352v3.936h.312a1.889,1.889,0,0,0,1.536-.528V137.824Zm-3.72,2.736a15.5,15.5,0,0,1-1.824,4.008,9.815,9.815,0,0,1-2.784-4.008Zm1.128-1.824-1.2,1.128H12.048l.216.7h1.392a13.764,13.764,0,0,0,2.448,5.16,14.148,14.148,0,0,1-4.152,3.5l.216.336a15.887,15.887,0,0,0,4.848-2.856,13.417,13.417,0,0,0,4.608,2.808,2.229,2.229,0,0,1,1.656-1.68l.048-.24a15.923,15.923,0,0,1-5.136-2.088,14.441,14.441,0,0,0,2.784-4.7c.528-.048.768-.1.936-.336Zm2.544,20.88c.312,0,.576-.12.624-.384-.96-.84-2.616-2.088-2.616-2.088l-1.416,1.776h-6.48c.192-1.968.216-3.984.264-6.072.552-.072.744-.312.816-.672l-2.976-.312c0,2.448.024,4.824-.168,7.056H1.152l.168.7h9.1c-.6,5.4-2.592,10.1-9.528,13.944l.288.384c8.328-3.552,10.584-8.5,11.28-14.112.7,4.8,2.592,10.56,8.928,14.136a2.046,2.046,0,0,1,1.944-1.728l.024-.288c-7.008-3.1-9.624-7.824-10.464-12.336ZM1.1,188.368a21.642,21.642,0,0,0,3.24-3.36V197.92H4.7a2.554,2.554,0,0,0,1.536-.5V183.208c.432-.072.672-.216.768-.408l-.864-.336a35.243,35.243,0,0,0,2.64-5.208c.552.048.864-.168.96-.456l-2.976-1.008A37.994,37.994,0,0,1,.792,188.1Zm21.024,2.256h-.312a24.807,24.807,0,0,1-1.032,4.248.705.705,0,0,1-.6.432c-.456.048-1.368.072-2.616.072H14.784c-1.224,0-1.488-.264-1.488-.936v-7.584a35.417,35.417,0,0,0,8.064-5.04c.528.144.768.048.936-.168l-2.472-1.728a33.483,33.483,0,0,1-6.528,6.264v-8.976c.6-.1.84-.336.888-.672l-2.808-.312v18.72c0,1.824.792,2.3,3.12,2.3h2.976c4.536,0,5.592-.312,5.592-1.3,0-.384-.192-.624-.864-.888Z" transform="translate(-17351 -9296.88)"/>
  </g>
</svg>
