<svg xmlns="http://www.w3.org/2000/svg" width="90.804" height="284.592" viewBox="0 0 90.804 284.592">
  <g id="グループ_47734" data-name="グループ 47734" transform="translate(15107.069 9289.063)">
    <path id="パス_94223" data-name="パス 94223" d="M18.576,22.288V27.52H8.832V22.288ZM19.1,16.7H14.376V13.768c.6-.12.84-.336.888-.7l-2.808-.264v8.784H9.1l-2.088-.864v9.216H7.32c.936,0,1.512-.384,1.512-.528v-1.2h9.744V29.8h.312a1.99,1.99,0,0,0,1.56-.5V22.408A1.348,1.348,0,0,0,21.36,22l-1.944-1.488-.912,1.08H14.376V17.368h7.656c.336,0,.576-.12.648-.36-.888-.816-2.328-1.968-2.328-1.968Zm.192-5.3h-5.76V8.728c.624-.072.84-.312.888-.648l-2.76-.264v3.576h-6L3.456,10.48v6.792c0,4.272-.264,8.76-2.64,12.384l.336.24c3.888-3.5,4.176-8.664,4.176-12.648v-5.16h17.04c.336,0,.552-.12.624-.384-.888-.864-2.4-2.04-2.4-2.04ZM5.136,31.744a25.409,25.409,0,0,1-4.68,8.544l.288.24A20.638,20.638,0,0,0,6.576,33.52a11.209,11.209,0,0,1,2.4,3.312c1.488,1.1,3.432-1.872-2.016-3.72.5-.048.7-.216.768-.456ZM4.032,51.3v-5.04H7.92V51.3ZM7.68,45.592H4.152l-1.9-.84V53.9H2.52c.768,0,1.512-.408,1.512-.576v-1.3H7.92v1.32h.264a2.648,2.648,0,0,0,1.512-.5V46.552a1.981,1.981,0,0,0,.96-.456L8.592,44.584Zm.36-2.616H6.888V40.12h3.24c.336,0,.552-.12.624-.384C10.056,39.04,8.9,38.1,8.9,38.1L7.9,39.424H6.888V37.288c.552-.1.768-.312.816-.624l-2.568-.24v3H2.208l.192.7H5.136v2.856H1.152l.168.7h9.144c.336,0,.528-.1.6-.36A24.856,24.856,0,0,0,9.1,41.584Zm12.144-3.432v3.288H17.448V39.544Zm-2.736,7.3V43.528h2.736V46.84Zm-4.392,0V43.528h2.592V46.84Zm2.592-7.3v3.288H13.056V39.544Zm6.96-3.072c.312,0,.552-.1.624-.36a22.186,22.186,0,0,0-1.824-1.56c.552-.624.144-2.088-2.808-2.328l-.24.192a6.459,6.459,0,0,1,1.848,2.208,1.044,1.044,0,0,0,.552.168L19.992,35.8H17.448V32.824c.6-.1.792-.336.84-.672l-2.64-.288V35.8H10.632l.192.672h4.824v2.376H13.176l-1.9-.84V53.872h.312c.768,0,1.464-.432,1.464-.648V47.536h2.592v6.216h.336c.7,0,1.464-.456,1.464-.7v-5.52h2.736V51.4c0,.312-.072.408-.408.408s-1.632-.1-1.632-.1V52.1a1.85,1.85,0,0,1,1.272.576,2.258,2.258,0,0,1,.336,1.224c1.992-.192,2.232-.936,2.232-2.3V39.88a1.571,1.571,0,0,0,.984-.48l-2.16-1.608-.864,1.056h-2.5V36.472ZM7.512,58.048V61.6H3.936V58.048Zm-3.576,7.92V62.3H7.512v3.672Zm0,4.44V66.664H7.512v3.744Zm0,.7H7.512v1.272H7.8a2.037,2.037,0,0,0,1.536-.528V58.192a1.509,1.509,0,0,0,.984-.408L8.376,56.2l-.96,1.152H4.224l-2.04-.864V72.736h.288a2.511,2.511,0,0,0,1.2-.288A15.014,15.014,0,0,1,.936,77.632l.24.312A13.87,13.87,0,0,0,5.328,73.6c.576.072.744-.072.888-.312l-2.3-1.056c.024-.024.024-.024.024-.048Zm2.232,1.272A7.993,7.993,0,0,1,7.68,75.832c1.656,1.368,3.432-1.968-1.224-3.576Zm13.584-8.52a23.2,23.2,0,0,1-2.424,7.272,17.926,17.926,0,0,1-2.76-7.272Zm.96-1.8-1.1,1.1H13.224V58.408H22.44a.586.586,0,0,0,.624-.36c-.816-.768-2.136-1.8-2.136-1.8l-1.152,1.488H13.56l-2.112-.864v7.752c0,4.656-.36,9.36-3.144,13.08l.312.24c4.272-3.576,4.608-8.976,4.608-13.32v-.768h.84a24.292,24.292,0,0,0,2.448,8.616,16.273,16.273,0,0,1-5.424,4.992l.24.336a17.06,17.06,0,0,0,5.928-4.08,13.716,13.716,0,0,0,4.32,4.056,2.232,2.232,0,0,1,1.848-1.416l.048-.24a14.412,14.412,0,0,1-5.16-3.7,21.338,21.338,0,0,0,3.432-8.256c.528-.072.768-.12.96-.36ZM5.472,86.248A34.968,34.968,0,0,0,7.8,81.184c.552.024.816-.192.912-.456L5.88,79.816A39.178,39.178,0,0,1,.648,91.864l.336.24a22.34,22.34,0,0,0,2.9-3.36V101.92h.336a2.434,2.434,0,0,0,1.608-.6V87.064c.408-.072.624-.24.7-.432Zm5.808-4.2h7.8v5.544h-7.8ZM16.2,93.64h5.928c.336,0,.576-.12.6-.384-.816-.792-2.232-1.872-2.232-1.872l-1.2,1.56H16.2V88.288h2.88V89.2h.336A2.154,2.154,0,0,0,21,88.72V82.144a1.329,1.329,0,0,0,.888-.384l-1.944-1.536-.96,1.1h-7.44l-2.112-.864v9.1H9.72c.984,0,1.56-.36,1.56-.5v-.768h3V98.56a6.227,6.227,0,0,1-3.6-3.36,24.009,24.009,0,0,0,.576-3.36c.552-.048.816-.264.888-.6l-2.856-.408c0,3.648-.672,8.04-2.952,10.8l.24.264a11.055,11.055,0,0,0,3.888-5.952c1.56,4.152,4.2,5.208,8.76,5.208h3.144c.024-.816.336-1.536.96-1.656v-.312c-1.056.024-3.024.024-3.96.024a21.183,21.183,0,0,1-3.168-.192ZM6.744,105.664a4.818,4.818,0,0,1,1.1.408.84.84,0,0,1,.528.936,14.357,14.357,0,0,1-.384,2.448,12.1,12.1,0,0,1-2.112.24,4.312,4.312,0,0,1-3.24-1.368l-.408.288c.744,1.968,1.584,2.616,3.456,2.616a16.22,16.22,0,0,0,1.824-.12,26.812,26.812,0,0,1-4.488,8.136,1.933,1.933,0,0,0-.456,1.272c0,.552.288,1.128.864,1.128.5,0,.84-.456,1.272-1.08a45.388,45.388,0,0,0,4.392-9.72,15.22,15.22,0,0,0,3.816-1.272c.312-.192.792-.5.792-.96a.9.9,0,0,0-.984-.84c-.408,0-.912.528-3.072,1.224.84-2.784.984-3.312.552-3.6a3.661,3.661,0,0,0-1.872-.456,4.647,4.647,0,0,0-1.584.336Zm7.8,15.408c0,1.416-.648,2.448-2.808,2.448-1.728,0-2.472-.624-2.472-1.464,0-.816,1.056-1.728,3.192-1.728a11.438,11.438,0,0,1,2.088.192Zm.864-11.112a4.614,4.614,0,0,1,2.664.768c.36.264.456.552.072.792a8.115,8.115,0,0,0-2.736,1.656,4.106,4.106,0,0,0-1.1,3.12c0,.864.1,1.848.144,2.832-.312-.024-.648-.048-.984-.048-3.264,0-5.184,1.464-5.184,3.312,0,1.512,1.392,2.76,3.936,2.76s4.056-1.152,4.056-3.168c0-.288-.024-.6-.048-.936a9.642,9.642,0,0,1,3.048,2.016c.624.552.96,1.056,1.464,1.056.432,0,.768-.336.768-.936,0-.744-.672-1.512-1.92-2.28a10.9,10.9,0,0,0-3.552-1.512c-.168-1.416-.432-2.832-.48-3.528a2.94,2.94,0,0,1,.48-2.208,3.484,3.484,0,0,1,2.112-.912c1.1-.048,1.584.456,2.256.456.552,0,.792-.408.792-1.008,0-1.08-.84-2.064-2.328-2.592a6.587,6.587,0,0,0-3.456-.168Zm-3.96,21.672c.312.384.288.6-.048.744-.912.36-3.24.888-4.416,1.176a1.183,1.183,0,0,0-1.032,1.224,12.249,12.249,0,0,1-.048,2.04c-.168,1.176-.6,3.336-.768,4.68-.1.7-.264,1.224-.264,1.656a1.968,1.968,0,0,0,.528,1.224,1.35,1.35,0,0,0,.984.576c.552,0,.84-.792,1.272-1.344,1.728-2.016,4.584-4.368,7.272-4.368a3.4,3.4,0,0,1,3.6,3.432c0,1.8-1.272,3.744-5.64,5.04a24.488,24.488,0,0,1-4.632.792l.072.552c5.64.408,12.216-1.392,12.216-5.808,0-2.472-1.8-4.9-5.448-4.9-2.736,0-5.616,1.44-8.016,3.36-.192.144-.312.12-.336-.144a17.372,17.372,0,0,1,.528-3.288,9.156,9.156,0,0,0,.36-2.04c-.024-.528-.312-1.176-.312-1.464,0-.24.1-.408.5-.48a17.556,17.556,0,0,1,3.528-.48c1.056,0,1.344.216,2.016.216.6,0,.888-.36.888-.984a2.888,2.888,0,0,0-1.608-2.52,8.39,8.39,0,0,0-4.464-1.2l-.12.48A6.938,6.938,0,0,1,11.448,131.632Z" transform="translate(-15078.133 -9296.88)"/>
    <path id="パス_94224" data-name="パス 94224" d="M9,8.776a11.263,11.263,0,0,1,3.048,2.52c.528.72.768,1.2,1.392,1.2a1.024,1.024,0,0,0,1.032-1.032c0-1.7-2.712-2.688-5.208-3.072ZM4.728,13.744a4.905,4.905,0,0,0,.216,1.608,3.041,3.041,0,0,0,2.064,1.656c.624,0,.768-.528,1.536-.744,1.272-.336,4.992-1.272,5.832-1.344.312-.048.336.048.168.336-1.92,3.36-7.968,7.92-12.84,10.392l.312.552a33.7,33.7,0,0,0,9.7-5.472,7,7,0,0,1,.048.792c0,1.272-.12,3.72-.216,4.392a13.475,13.475,0,0,0-.216,1.584c0,.648.384,1.9,1.128,1.9.792,0,.96-.672.96-1.248,0-.552-.1-1.512-.1-2.3,0-3.7.12-4.608.12-5.208a1.4,1.4,0,0,0-.552-.912,28.013,28.013,0,0,0,3.72-3.912c.288-.384,1.32-.552,1.32-1.08,0-.552-1.608-1.68-2.28-1.68-.384,0-.5.432-1.3.648a66.926,66.926,0,0,1-7.608,1.2c-.72,0-1.176-.72-1.608-1.272Zm10.08,6.192a11.534,11.534,0,0,1,4.368,3.912c.456.672.72.888,1.224.888a.9.9,0,0,0,.912-.936c0-2.112-2.856-3.7-6.264-4.272Zm-4.32,22.128c.576,1.248.552,2.256,1.392,2.256a.893.893,0,0,0,.936-.936,3.213,3.213,0,0,0-1.464-2.472A7.929,7.929,0,0,0,9.5,39.784l-.264.24A10.313,10.313,0,0,1,10.488,42.064Zm7.7.936c.288-.552.744-.792.744-1.224,0-.7-1.272-1.848-2.256-1.968a6.428,6.428,0,0,0-1.2.048l-.1.336c.864.384,1.248.7,1.248,1.1,0,2.016-3.912,8.328-10.128,11.52l.264.408A19.518,19.518,0,0,0,18.192,43Zm-11.88.432c.648,1.3.672,2.3,1.536,2.3a.864.864,0,0,0,.888-.96,3.568,3.568,0,0,0-1.7-2.616,7.671,7.671,0,0,0-1.728-1.1l-.288.264A8.818,8.818,0,0,1,6.312,43.432ZM7.584,58.456c1.176.144,1.776.336,1.872,1.1.168,1.176.168,3.888.168,5.832,0,1.728,0,5.448-.192,7.224-.1.96-.312,1.44-.312,1.992,0,1.1.48,2.4,1.416,2.4.648,0,.888-.336.888-1.152,0-.384-.048-1.128-.072-2.232-.024-2.424-.024-6.144,0-8.016a16.924,16.924,0,0,1,3.7,1.992c1.536,1.272,1.776,2.256,2.76,2.256a.951.951,0,0,0,.96-1.032A2.53,2.53,0,0,0,17.3,66.808a19.068,19.068,0,0,0-5.952-2.04c.024-1.368.072-3,.216-4.08.1-.792.552-.936.552-1.488,0-.624-1.776-1.608-2.856-1.608A6.668,6.668,0,0,0,7.56,58ZM14.52,82.48c.84.5,1.44.912,1.44,1.584,0,.792-1.392,3.528-2.976,5.856A33.4,33.4,0,0,0,6.6,86.944l-.312.528A41.121,41.121,0,0,1,11.9,91.384a35.6,35.6,0,0,1-9.936,8.568l.312.456a26.881,26.881,0,0,0,10.968-7.872c2.856,2.64,3.1,4.3,4.176,4.3a1.019,1.019,0,0,0,1.032-1.152c-.024-1.368-2.16-3.432-3.96-4.752,1.392-1.968,2.688-4.224,3.168-5.016.432-.768,1.008-.84,1.008-1.32,0-.744-.984-1.728-1.944-2.184a5.83,5.83,0,0,0-2.064-.36ZM6.216,107.1c.816,1.368,1.512,2.136,2.808,2.136a46.565,46.565,0,0,0,7.488-.984c.768-.144,1.032-.384,1.032-.768,0-.7-.888-1.1-2.064-1.1-.456,0-.768.384-2.136.7a20.878,20.878,0,0,1-4.392.6,3.993,3.993,0,0,1-2.424-.864Zm-3.624,4.968a3.4,3.4,0,0,0,.168,1.3c.24.72,1.368,1.728,1.992,1.7a10.677,10.677,0,0,0,2.064-.552c.744-.192,2.808-.576,4.7-.84a1.5,1.5,0,0,1,.336.936c0,1.464-1.488,6.888-7.1,10.608l.456.48a16.113,16.113,0,0,0,8.376-9.408c.336-.84.912-.984.912-1.488,0-.432-.576-.888-1.272-1.3,2.04-.192,3.936-.264,4.992-.264,1.224,0,2.232.192,2.664.192.576,0,.768-.216.768-.72,0-.768-1.44-1.368-2.568-1.368a23.845,23.845,0,0,1-2.424.432c-4.056.384-10.44,1.344-12.072,1.344-.648,0-1.1-.576-1.608-1.2Zm15.528-5.208a10.644,10.644,0,0,1,2.088,2.184c.456.6.672,1.056,1.056,1.056a.617.617,0,0,0,.648-.648,1.814,1.814,0,0,0-.744-1.416,8.146,8.146,0,0,0-2.712-1.536Zm1.848-1.92a9.722,9.722,0,0,1,2.064,2.016c.48.6.7,1.056,1.128,1.08.408.024.624-.288.624-.672a1.868,1.868,0,0,0-.888-1.488,9.9,9.9,0,0,0-2.64-1.32ZM13.2,134.632c.5.24,1.056.624,1.056,1.008,0,1.1-4.608,6.192-9.5,8.976l.24.384a24.807,24.807,0,0,0,7.1-4.2,2.127,2.127,0,0,1,.168.744,42.251,42.251,0,0,1-.216,4.824c-.048.6-.192.984-.192,1.32,0,.792.384,1.7,1.2,1.7.552,0,.84-.384.84-1.128,0-.984-.144-3.648-.048-6.216.024-.48.192-.768.192-1.056,0-.312-.432-.648-.984-1.032,1.128-1.056,2.016-2.016,2.664-2.736.5-.5.888-.5.888-.984,0-.576-1.008-1.488-1.872-1.776a4.187,4.187,0,0,0-1.416-.144ZM3.288,155.32a4.14,4.14,0,0,0,.288,1.584,3.5,3.5,0,0,0,2.208,1.848c.624,0,.72-.5,1.656-.72,2.616-.528,9.192-1.536,10.32-1.536.48,0,.6.1.312.552a21.319,21.319,0,0,1-4.128,3.816,5.331,5.331,0,0,0-2.112-.672,6.738,6.738,0,0,0-1.56,0l-.12.456c1.032.384,1.92.768,1.92,1.512,0,1.608-3.024,7.44-7.752,10.416l.384.48A18.519,18.519,0,0,0,14.5,162.04a1.014,1.014,0,0,0,.072-.432,54.264,54.264,0,0,0,5.208-3.264c.552-.384,1.608-.48,1.608-1.128,0-.768-1.9-2.424-2.616-2.424-.456,0-.72.36-1.344.456-1.464.216-10.368,1.2-12.1,1.2-.72,0-1.032-.528-1.56-1.248Zm4.464,31.656c-.576,1.2-1.9,4.008-2.448,4.848-.216.336-.384.288-.552-.024a3.884,3.884,0,0,1-.312-1.9,14.328,14.328,0,0,1,1.584-5.88c.6-1.344.936-1.8.936-2.376a4.222,4.222,0,0,0-1.728-2.688,4.807,4.807,0,0,0-1.392-.744l-.36.312A3.887,3.887,0,0,1,4.8,181.12a14.527,14.527,0,0,1-.576,2.928A22.409,22.409,0,0,0,3.1,190.312a10.439,10.439,0,0,0,1.416,5.5,1.692,1.692,0,0,0,1.272.936c.552,0,.84-.336.84-.912,0-.6-.48-1.392-.48-2.136a6.851,6.851,0,0,1,.384-1.752c.24-.912,1.272-3.432,1.752-4.728Zm2.376,2.328a8.271,8.271,0,0,0,.24,2.112c.6,2.544,2.592,3.984,6.576,3.984,2.688,0,4.968-.288,4.968-1.416,0-.624-.768-.912-1.512-.912a22.415,22.415,0,0,1-4.032.432c-2.976,0-4.2-.792-5.04-2.28a8.859,8.859,0,0,1-.672-1.992Zm.96-6.84a14.82,14.82,0,0,1,4.392-.744c1.632,0,1.608.168,1.32.456-.456.432-2.04,1.608-3.1,2.4l.384.432a38.1,38.1,0,0,1,3.936-2.112,9.528,9.528,0,0,1,2.136-.456c.528-.072.744-.312.744-.7a1.14,1.14,0,0,0-.792-.984,7.736,7.736,0,0,0-3.36-.552,11.22,11.22,0,0,0-5.856,1.7ZM8.3,218.008c0,.48-.168.648-.7.456-.672-.288-1.7-.768-2.568-1.2A36.656,36.656,0,0,1,8.3,214.5Zm1.272-6.48c0-1.032.024-2.112.1-3.168a28.058,28.058,0,0,0,3.528-1.32c.528-.264.816-.576.816-.984-.024-.72-.96-.792-1.344-.768-.456,0-1.2.72-2.88,1.368a14.823,14.823,0,0,1,.288-2.16c.168-.768.528-1.152.528-1.728,0-.624-1.632-1.416-2.616-1.416a3.482,3.482,0,0,0-1.848.552l.072.432a5.514,5.514,0,0,1,1.56.192c.384.144.5.24.528.84.024.576,0,2.088,0,3.768a12.384,12.384,0,0,1-2.64.48c-1.224.048-1.632-.216-2.832-1.368l-.384.288c.912,2.3,1.968,2.616,3.24,2.616a14.251,14.251,0,0,0,2.616-.408v4.392c-1.656.936-3.5,2.376-4.32,2.856a1.96,1.96,0,0,1-1.416.312c-.576-.048-.72.144-.72.792a1.584,1.584,0,0,0,.5,1.176,1.238,1.238,0,0,0,.84.456c.384,0,.672-.312,1.368-.984a21.287,21.287,0,0,1,2.472,1.872c.768.72.792,1.512,1.416,1.512.816,0,1.536-1.224,1.536-2.328,0-.888-.288-1.752-.384-5.088a13.1,13.1,0,0,1,5.9-2.04c2.568,0,3.648,1.416,3.648,3.168a3.3,3.3,0,0,1-3.6,3.384,5.537,5.537,0,0,1-3.744-1.44l-.384.36a5.36,5.36,0,0,0,4.56,2.664c3.1,0,4.992-2.088,4.992-4.536,0-2.808-2.04-4.536-4.92-4.536a14.476,14.476,0,0,0-6.48,1.728Zm6.048-6.5c1.632-.1,3.48.144,4.368,1.44a.6.6,0,0,1-.048.912,18.515,18.515,0,0,1-1.9,1.32l.264.384a10.046,10.046,0,0,1,1.9-.672c.744-.12,1.056.576,1.608.48.576-.048.816-.528.792-1.08-.048-1.584-1.776-3.216-3.768-3.552a7.56,7.56,0,0,0-3.264.216ZM8.568,243.568c-1.512,0-2.4-.648-2.4-1.488,0-.936,1.488-1.776,3.744-1.776a13.036,13.036,0,0,1,2.208.192C12.1,242.728,11.328,243.568,8.568,243.568ZM13.3,233.92c0-1.128.024-2.136.1-3a34.169,34.169,0,0,0,5.5-1.176c.528-.192.888-.408.888-.912,0-.6-.864-.864-1.464-.864a8.091,8.091,0,0,0-1.44.528,33.234,33.234,0,0,1-3.336.768c.072-.528.144-.96.216-1.32.144-.6.48-.84.48-1.344,0-.7-1.56-1.392-2.736-1.392a3.975,3.975,0,0,0-1.8.48l.048.456a8.557,8.557,0,0,1,1.752.36c.408.144.528.288.528.768,0,.24-.024,1.128-.048,2.232a29.123,29.123,0,0,1-3.792.288A5.667,5.667,0,0,1,3.96,228.28l-.384.312c1.2,2.088,2.688,2.688,4.944,2.688a32.436,32.436,0,0,0,3.408-.192c-.024.744-.024,1.488-.024,2.184v1.008c-.96.1-1.944.144-2.9.144-2.28,0-3.216-.552-1.8-2.424l-.48-.264c-2.664,2.448-.96,4.152,2.376,4.152.936,0,1.9-.048,2.856-.12.048,1.3.1,2.472.144,3.432a13.638,13.638,0,0,0-1.416-.072c-3.048,0-5.52,1.128-5.52,3.048,0,1.824,1.776,2.928,4.248,2.928,2.712,0,4.392-1.2,4.392-3.216,0-.312-.024-.624-.024-.96a12.475,12.475,0,0,1,4.416,2.616c.48.432.744.672,1.224.672a.752.752,0,0,0,.768-.84,2.082,2.082,0,0,0-.96-1.536,12.95,12.95,0,0,0-5.592-2.424c-.1-1.1-.24-2.328-.288-3.792a26.792,26.792,0,0,0,5.208-1.056c.48-.168.792-.456.792-.888,0-.576-.72-.84-1.368-.84a13.733,13.733,0,0,0-1.512.552,20.771,20.771,0,0,1-3.168.7ZM7.32,250.384a6.855,6.855,0,0,1,1.824.408.665.665,0,0,1,.384.672,18.2,18.2,0,0,1-1.176,3.792,41.532,41.532,0,0,1-4.608.912c-.672,0-.888-.7-1.2-1.392l-.432.072a3.051,3.051,0,0,0-.12,1.464c.192.84,1.152,1.848,1.8,1.848a5.3,5.3,0,0,0,1.944-.672c.48-.192,1.224-.48,2.04-.768-.528,1.272-1.1,2.568-1.656,3.672a36.246,36.246,0,0,1-3.72,5.9,1.677,1.677,0,0,0-.432,1.224.973.973,0,0,0,.84,1.08c.432,0,.744-.192,1.152-.864a70.932,70.932,0,0,0,3.528-6.648c.72-1.512,1.512-3.336,2.184-4.944a9.829,9.829,0,0,1,2.064-.336c1.272,0,1.68.744,1.68,2.352a14.526,14.526,0,0,1-1.728,6.984,2,2,0,0,1-1.824,1.128,8.308,8.308,0,0,1-2.88-1.32l-.24.36c1.272,1.176,1.464,1.44,1.608,1.848.312.84.5,1.176,1.344,1.176a3.861,3.861,0,0,0,2.976-1.464c1.512-1.848,2.352-5.232,2.352-8.184,0-2.928-1.1-3.96-2.928-3.96a14.491,14.491,0,0,0-1.9.192c.408-.96.744-1.776.96-2.328.288-.672.84-.96.84-1.536,0-.648-1.92-1.512-2.928-1.512a4.214,4.214,0,0,0-1.752.384Zm9.1,4.848a4.7,4.7,0,0,1,3.1,1.944,5.356,5.356,0,0,1,.936,2.736c.024.624-.1.864-.6,1.056a29.533,29.533,0,0,1-2.88.72l.12.528a13.217,13.217,0,0,1,2.784.024c.72.168.7.864,1.416.864.816,0,1.2-.864,1.2-1.968a6.4,6.4,0,0,0-1.632-4.512,6.568,6.568,0,0,0-4.2-1.92Zm-2.832,19.2a10.137,10.137,0,0,1,1.416.192.74.74,0,0,1,.648.72c.072.984.048,2.832.048,4.224-2.064.456-4.9,1.128-6.576,1.536.048-1.008.1-1.872.144-2.376.1-.96.5-1.08.5-1.536,0-.672-1.584-1.608-2.664-1.608a4.936,4.936,0,0,0-1.728.408l.024.48a4.946,4.946,0,0,1,1.392.264c.384.168.5.312.576,1.008.072.744.072,2.184.072,3.792a45.25,45.25,0,0,1-4.56,1.008c-.576,0-1.176-.624-1.584-1.248l-.36.144a3.306,3.306,0,0,0,.144,1.344c.384.912,1.32,1.776,2.016,1.776.648,0,1.68-.648,4.344-1.56.024,2.232,0,4.488.072,5.832.12,2.832,2.112,3.576,5.736,3.576A27.488,27.488,0,0,0,18.7,292c.816-.192,1.128-.456,1.128-.96,0-.7-.768-1.032-1.632-1.032a37.141,37.141,0,0,1-5.616.648c-3.048,0-3.528-.36-3.6-2.76-.048-1.056,0-3.336.1-5.4,1.728-.5,4.32-1.1,6.576-1.512a25.262,25.262,0,0,1-.336,3.624.728.728,0,0,1-.84.624,15.092,15.092,0,0,1-2.712-.6l-.168.48c.96.456,2.04.912,2.4,1.68.24.5.48.624.888.624.984,0,1.608-.744,1.848-1.872a30.733,30.733,0,0,0,.48-4.8c.36-.048.672-.1.984-.12a24.249,24.249,0,0,1,3.648.048c.72,0,1.128-.168,1.128-.744,0-.864-1.032-1.3-2.088-1.3a26.457,26.457,0,0,0-3.6.6c.048-1.008.1-1.872.144-2.568.048-.864.5-1.056.5-1.464,0-.72-1.488-1.728-2.736-1.728a4.339,4.339,0,0,0-1.656.5Z" transform="translate(-15108.004 -9296.88)"/>
    <g id="グループ_47702" data-name="グループ 47702" transform="translate(344.177)">
      <path id="パス_94217" data-name="パス 94217" d="M.66,16.633a12.982,12.982,0,0,0,4.994-2.785c.3.069.439.014.521-.123l-1.523-.933A12.753,12.753,0,0,1,.537,16.455Zm7.217-3.389a13.285,13.285,0,0,1,3.787,3.293c1.55.6,1.893-2.4-3.677-3.444ZM4.543,8.264H8.357v3.841H4.543Zm6.338,3.841H9.66V8.264h2.566c.192,0,.329-.069.37-.22-.549-.494-1.468-1.18-1.468-1.18l-.782,1h-5.8V5.945a41.9,41.9,0,0,0,5.694-.864c.384.151.645.151.782.014L9.688,3.86A28.873,28.873,0,0,1,4.694,5.534L3.239,4.958v7.148H.441l.123.4H12.816c.206,0,.343-.069.384-.22-.563-.508-1.5-1.221-1.5-1.221ZM2.828,19.638H12.843c.206,0,.343-.069.37-.22-.521-.494-1.386-1.18-1.386-1.18l-.768,1H7.753V18.128c.357-.055.48-.192.494-.384l-1.756-.151V19.24H3.034l-1.468-.563v4.267c0,2.47-.1,5.117-1.29,7.217l.178.123c2.25-2.044,2.373-5.021,2.373-7.34ZM5.05,26.086V24.728h2v1.358Zm2-3.073V24.33h-2V23.013Zm3.334,0V24.33H8.316V23.013ZM8.316,26.086V24.728h2.072v1.358Zm2.84,1.8H8.316V26.47h2.072v.576h.206a1.709,1.709,0,0,0,1.029-.384V23.191a.923.923,0,0,0,.508-.247l-1.29-.974-.59.645H8.316V21.5h4.034c.192,0,.316-.069.357-.22A16.944,16.944,0,0,0,11.4,20.2l-.7.905H8.316v-.8c.288-.041.37-.165.4-.316l-1.66-.165v1.276H3.116l.11.4H7.053v1.111H5.133l-1.276-.521v5.1h.178c.494,0,1.015-.288,1.015-.4V26.47h2v1.413H2.54l.123.37h4.39v2.1H7.3c.466,0,1.015-.288,1.015-.425V28.254h4.555c.192,0,.343-.069.37-.206-.521-.466-1.345-1.1-1.345-1.1Zm-1.427,4.61v1.386H5.572V32.493ZM5.572,35.648V34.263H9.729v1.386Zm0,1.8v-1.4H9.729v1.4Zm0,.4H9.729V38.6h.206a1.653,1.653,0,0,0,1.1-.425v-5.46a.974.974,0,0,0,.563-.288L10.25,31.382l-.659.727H5.64L4.3,31.532v7.189H4.5c.535,0,1.07-.288,1.07-.425Zm-4.9,5.9A11.075,11.075,0,0,0,4.941,41.15c.329.069.439,0,.535-.123l-1.564-.892A11.2,11.2,0,0,1,.55,43.565Zm7.889-3.279a11,11,0,0,1,3.1,3c1.468.631,1.934-2.236-2.991-3.128Zm2.319-1.152H2.773v-6.16c.357-.055.466-.192.494-.384l-1.756-.178v7.985h.233c.494,0,1.029-.247,1.029-.384v-.48H6.258v4.363h.233a1.618,1.618,0,0,0,1.084-.288V39.709h5.241c.206,0,.343-.069.384-.22C12.637,39,11.7,38.3,11.7,38.3ZM.729,47.9a2.769,2.769,0,0,0-.041.768,1.916,1.916,0,0,0,1.5,1.358c.343,0,.617-.274.905-.425A22.338,22.338,0,0,1,7.41,48.133c.151-.041.165.041.055.123a5.682,5.682,0,0,0-2.291,4.692,3.416,3.416,0,0,0,1.454,3.169,5.251,5.251,0,0,0,2.991.713c.631,0,1.18-.137,1.18-.645,0-.439-.535-.8-.947-.8a5.212,5.212,0,0,1-2.442-.384,2.435,2.435,0,0,1-1.18-2.415,4.662,4.662,0,0,1,1.8-4.047A4.025,4.025,0,0,1,10.264,48c.453,0,.878.041,1.207.041.37,0,.617-.22.617-.494,0-.3-.22-.508-.549-.659a2.726,2.726,0,0,0-1.084-.192,21.712,21.712,0,0,0-3.238.645,48.909,48.909,0,0,1-5.406,1.194c-.329,0-.659-.343-.878-.7Zm9.81,1.139A6.376,6.376,0,0,1,11.8,50.232c.274.343.425.59.672.59a.376.376,0,0,0,.4-.425,1.067,1.067,0,0,0-.494-.851,5.184,5.184,0,0,0-1.688-.727ZM9.3,49.931a7.433,7.433,0,0,1,1.248,1.331c.247.343.412.59.617.59a.407.407,0,0,0,.425-.439,1.032,1.032,0,0,0-.412-.8,4.874,4.874,0,0,0-1.715-.892ZM4.735,69.618c-.014-.837-.027-1.66-.027-2.47V62.4l.041-2.181-.192-.151-3.238.8v.521l1.921-.178v5.941c0,.809-.014,1.646-.027,2.47L1.1,69.893v.439h5.68v-.439Zm5.09-4.4c0-3.677.823-4.651,1.756-4.651.892,0,1.729.988,1.729,4.651,0,3.773-.837,4.774-1.729,4.774C10.648,69.989,9.825,69,9.825,65.214Zm1.756-5.186c-1.688,0-3.265,1.454-3.265,5.186,0,3.855,1.578,5.323,3.265,5.323,1.66,0,3.238-1.468,3.238-5.323C14.819,61.482,13.241,60.028,11.581,60.028ZM4.2,81.266V78H6.875v3.265Zm6.6,0H8.288V78h3.677c.192,0,.343-.069.37-.22-.549-.48-1.454-1.152-1.454-1.152l-.768.974H8.288v-2.62h4.13c.192,0,.329-.069.357-.22-.59-.549-1.523-1.235-1.523-1.235l-.837,1.056H4.351a14.312,14.312,0,0,0,.809-1.331c.316.027.494-.082.563-.247l-1.907-.741A17.043,17.043,0,0,1,.4,78.111l.165.137a12.261,12.261,0,0,0,3.512-3.265h2.8V77.6h-2.5l-1.55-.59v4.253H.454l.123.4h6.3V85.2h.247c.727,0,1.166-.288,1.166-.384V81.664h4.527c.192,0,.343-.069.384-.22-.59-.494-1.55-1.221-1.55-1.221ZM5,88.592a9.368,9.368,0,0,1,1.989,3.142c1.386.974,2.387-1.825-1.852-3.224Zm2.1,5.694c-1.194.4-2.428.782-3.526,1.125l-.123-7.944c.37-.055.48-.206.494-.4l-1.811-.137L2.265,95.8c-.809.233-1.5.412-1.948.508l.755,1.55a.593.593,0,0,0,.329-.37A58.4,58.4,0,0,0,7.15,94.464Zm3.293-7.313c-.11,5.309-.508,8.849-6.928,11.73l.123.233c3.087-.947,4.98-2.14,6.174-3.581a12.157,12.157,0,0,1,2.223,3.252c1.454.905,2.291-1.852-1.921-3.663,1.427-1.989,1.633-4.459,1.756-7.381.329-.027.494-.192.521-.4Zm.357,24.572H7.095v-5.968h4.692c.192,0,.329-.069.37-.22-.59-.535-1.55-1.262-1.55-1.262l-.878,1.084H7.095v-4.514c.357-.055.466-.192.494-.384l-1.907-.206v11.47H.441l.11.4H12.816c.206,0,.357-.069.4-.22-.6-.535-1.605-1.276-1.605-1.276ZM6.422,117.39a6.29,6.29,0,0,1-.563,2.319c-.48,1.1-1.715,3.1-2.552,3.1-.563,0-1.084-1-1.084-2.2a4.335,4.335,0,0,1,1.3-3.032,5.187,5.187,0,0,1,2.5-1.413A2.31,2.31,0,0,1,6.422,117.39Zm-.165,7.985c4.541-.233,6.2-2.5,6.2-4.953a4.909,4.909,0,0,0-5.227-4.9,6.054,6.054,0,0,0-4.1,1.454A5.386,5.386,0,0,0,1.2,120.957c0,1.756.988,3.334,2.017,3.334,1.55,0,3.114-2.566,3.7-4.267a6.99,6.99,0,0,0,.453-2.332,2.694,2.694,0,0,0-.782-1.633c.178-.014.357-.027.521-.027a3.837,3.837,0,0,1,3.951,4.075c0,2.428-1.441,4.267-4.857,4.98Zm.905,3.375c.631.11.96.206,1,.535a20.522,20.522,0,0,1,.069,2.47c-.837.082-1.866.192-2.675.274,0-.466.014-.947.027-1.194.041-.48.233-.494.233-.8,0-.48-.96-.919-1.468-.919a2.519,2.519,0,0,0-.947.261l.014.233c.617.137.919.247.988.563a16.5,16.5,0,0,1,.1,1.976c-.823.082-2.058.22-2.552.22-.37,0-.6-.316-.933-.727l-.206.069a2.425,2.425,0,0,0,.1.878c.137.3.686,1.029,1.139,1.029a4.1,4.1,0,0,0,.96-.316,12.291,12.291,0,0,1,1.5-.3,17.4,17.4,0,0,1-.247,2.14c0,.48.316,1.207.755,1.207.384,0,.549-.247.549-.8s-.014-1.578,0-2.689c.768-.1,1.756-.192,2.675-.247a8.71,8.71,0,0,1-.8,4.171A7.381,7.381,0,0,1,4.364,139.4l.151.261a7.2,7.2,0,0,0,3.924-2.538c.809-1.125.919-2.758.974-4.569.192-.014.384-.014.563-.014,1.235,0,1.866.178,2.291.178.316,0,.494-.082.494-.439,0-.549-.851-.878-1.55-.878-.288,0-.439.11-1.8.247.014-.48.027-1.029.041-1.509.041-.686.316-.617.316-.933,0-.4-.905-1-1.605-1a2.52,2.52,0,0,0-1,.3Zm4.006,13.089a.995.995,0,1,1-.988.988A.984.984,0,0,1,11.169,141.838Zm0,2.5a1.5,1.5,0,1,0-1.509-1.509A1.5,1.5,0,0,0,11.169,144.335Zm-7.285,3.649a4.208,4.208,0,0,1-1.5,2.058c-.576.466-.892.563-.892,1.056a.612.612,0,0,0,.645.645c1.152,0,2.017-2.127,2.058-3.7ZM5.2,143c.631.123.96.219,1.056.59a15.822,15.822,0,0,1,.11,1.948c-1.1.123-3.2.37-3.828.37-.357,0-.6-.261-.905-.659l-.22.1a2.487,2.487,0,0,0,.123.864,1.7,1.7,0,0,0,1.166,1c.357,0,.563-.274,1.1-.4.672-.151,1.715-.316,2.579-.425.014.412.014.8.014,1.056.014,1.166.014,3.265-.041,3.951-.014.178-.11.206-.261.192-.357-.055-.878-.192-1.386-.329l-.123.247a3.816,3.816,0,0,1,1.084.96c.316.494.316.755.809.755.617,0,1.056-.755,1.056-1.427,0-.466-.1-3.087-.1-4.335v-1.18c.905-.1,1.866-.178,2.4-.178.713,0,1.152.069,1.619.069.37,0,.563-.137.563-.466,0-.508-.864-.864-1.441-.864-.329,0-.439.206-3.114.563.014-.508.041-.974.082-1.29.041-.384.3-.453.3-.741,0-.384-.851-.878-1.5-.892a3.537,3.537,0,0,0-1.166.261Zm3.745,5.063a6.663,6.663,0,0,1,1.88,2.415c.233.453.425.947.905.947.439,0,.672-.343.617-.823-.151-1.276-1.688-2.3-3.252-2.758Zm-4.8,21.91c.631.1,1,.219,1.07.672a33.429,33.429,0,0,1,.123,3.389c0,.919-.014,2.936-.123,3.951-.055.576-.178.864-.178,1.194,0,.782.329,1.537.919,1.537.439,0,.59-.233.59-.8,0-.206-.027-.645-.041-1.317-.027-1.3-.041-3.293-.014-4.5a8.676,8.676,0,0,1,1.921,1.1c.96.823,1.07,1.454,1.756,1.454a.637.637,0,0,0,.645-.686,1.5,1.5,0,0,0-.905-1.29A9.909,9.909,0,0,0,6.491,173.6c.027-.8.055-1.646.123-2.223.069-.48.343-.59.343-.933,0-.4-1.1-1-1.742-1a3.45,3.45,0,0,0-1.084.288Zm7.134,14.433a10.176,10.176,0,0,1-.521,1.345l.151.1a9.049,9.049,0,0,0,1.811-1.207c.274-.014.425-.041.521-.137l-1.262-1.235-.741.741H7.465v-1.249c.357-.055.48-.192.508-.384l-1.852-.151v1.784H2.649a5.518,5.518,0,0,0-.233-.906l-.206.014A2.031,2.031,0,0,1,1.2,185a.807.807,0,0,0-.494.988.808.808,0,0,0,1.207.261,1.963,1.963,0,0,0,.782-1.838Zm1.248,6.517a.335.335,0,0,0,.357-.206c-.508-.48-1.372-1.111-1.372-1.111l-.755.933H7.122a6.8,6.8,0,0,0,.3-1.674h3.924c.192,0,.343-.069.384-.219-.521-.453-1.345-1.056-1.345-1.056l-.727.878H7.451v-1.537H11.4c.192,0,.329-.069.37-.22-.521-.453-1.317-1.056-1.317-1.056l-.727.878H7.451v-1.015c.343-.055.453-.192.48-.37l-1.784-.165v1.55H2.087l.11.4H6.148v1.537H2.183l.11.4H6.134a7.5,7.5,0,0,1-.288,1.674H.742l.11.384H5.709c-.631,1.591-2.072,2.922-5.159,3.842l.069.206c3.938-.755,5.666-2.236,6.38-4.047h.343c.851,2.264,2.47,3.389,4.857,4.075a1.493,1.493,0,0,1,1.043-1.235l.014-.165c-2.4-.3-4.555-1.015-5.611-2.675ZM2.416,195.935c-.233.919-.549,1.934-.809,2.689a4.306,4.306,0,0,0-1.084-.384l-.137.1A4,4,0,0,1,1.5,200.257c.823.576,1.564-.576.439-1.427A15.519,15.519,0,0,0,3.61,196.8c.288,0,.466-.1.521-.261Zm2.031,6.27a3.8,3.8,0,0,1,.178.892c.974.919,2.154-1.125-.659-2.387l-.151.082a7.262,7.262,0,0,1,.521,1.084c-.713.027-1.413.055-2.031.069a31.024,31.024,0,0,0,2.758-3.512.512.512,0,0,0,.563-.233l-1.66-.617c-.521,1.262-1.358,3.018-2.1,4.377-.6.014-1.111.014-1.441.014l.466,1.3a.479.479,0,0,0,.357-.288c.48-.11.919-.206,1.331-.3v1.482l-1.454-.329A14.2,14.2,0,0,1,.4,207.514l.22.11a8.323,8.323,0,0,0,1.55-3.142.57.57,0,0,0,.412-.151v4.363h.206a1.216,1.216,0,0,0,.988-.343v-5.968Zm-.425,1.7a6.825,6.825,0,0,1,.617,2.5c.919.933,2.1-1.056-.453-2.552Zm.837,4.8a11.861,11.861,0,0,0,3.883-1.4c.37.082.6.041.7-.11l-1.482-.906a10.415,10.415,0,0,1-3.183,2.223Zm2.662-3.2v-1.043h3.526v1.043Zm3.526-3.9v1.029H7.52v-1.029Zm0,2.456H7.52v-1.043h3.526Zm.22,2.374a1.858,1.858,0,0,0,1.056-.343v-4.349a.633.633,0,0,0,.439-.22l-1.235-.933-.6.617H7.589l-1.3-.535v5.927h.192c.508,0,1.043-.261,1.043-.384v-.316h3.526v.535Zm-1.591.247a4.887,4.887,0,0,1,2.2,1.7c.988,1.07,3.114-1.372-2.127-1.893Zm1.688-6.764H9.852v-1.043h2.689a.335.335,0,0,0,.357-.206c-.439-.412-1.18-.974-1.18-.974l-.645.8H9.852v-.947h2.909c.192,0,.316-.069.357-.22-.48-.439-1.29-1.043-1.29-1.043l-.713.864H9.852v-.6c.343-.055.439-.192.466-.37l-1.77-.165v1.139H5.585l.11.4H8.549v.947H5.983l.11.384H8.549v1.043H5.3l.11.4h7.587c.192,0,.329-.069.37-.22-.494-.439-1.29-1.056-1.29-1.056Z" transform="translate(-15375.262 -9291.141)"/>
      <path id="パス_94216" data-name="パス 94216" d="M.019,1.915A1.492,1.492,0,0,1,.088,1.14,2.27,2.27,0,0,1,1.556,0c.466,0,.645.217,1.55.3C4.149.4,7.551.57,8.512.57c.919,0,1.4-.034,1.921-.034s.782.148.782.422c0,.41-.686.707-1.372.707-.343,0-.864-.091-1.784-.148-.755-.046-5.172-.285-6.531-.285-.672,0-.905.331-1.262.752Z" transform="translate(-15368.598 -9135.385) rotate(89)"/>
    </g>
  </g>
</svg>
